<svg width="24" height="18" viewBox="0 0 24 18" fill="currentColor" xmlns="http://www.w3.org/2000/svg">
<path d="M11.9444 11.4978C15.6875 11.4978 18.8836 12.0912 18.8836 14.4658C18.8836 16.8395 15.708 17.4545 11.9444 17.4545C8.20129 17.4545 5.00519 16.8611 5.00519 14.4875C5.00519 12.1128 8.18077 11.4978 11.9444 11.4978ZM17.9292 10.0679C19.3602 10.0413 20.8987 10.2378 21.4671 10.3773C22.6715 10.6141 23.4637 11.0975 23.7919 11.8C24.0694 12.3767 24.0694 13.0458 23.7919 13.6215C23.2899 14.7111 21.6713 15.0608 21.0422 15.1512C20.9123 15.1709 20.8078 15.0579 20.8215 14.9272C21.1429 11.9081 18.5866 10.4766 17.9253 10.1474C17.8969 10.1327 17.8911 10.1101 17.894 10.0964C17.896 10.0865 17.9077 10.0708 17.9292 10.0679ZM5.80209 10.0658L6.07156 10.0683C6.09305 10.0712 6.1038 10.0869 6.10575 10.0958C6.10868 10.1105 6.10282 10.1321 6.07547 10.1478C5.4132 10.477 2.8569 11.9084 3.17827 14.9266C3.19195 15.0583 3.08841 15.1703 2.95849 15.1516C2.32943 15.0612 0.710868 14.7115 0.208792 13.6219C-0.0695972 13.0452 -0.0695972 12.3771 0.208792 11.8004C0.536997 11.0979 1.32821 10.6145 2.53261 10.3768C3.10208 10.2382 4.63957 10.0417 6.07156 10.0683L5.80209 10.0658ZM11.9444 0C14.4929 0 16.5363 2.05338 16.5363 4.61766C16.5363 7.18095 14.4929 9.2363 11.9444 9.2363C9.39592 9.2363 7.35244 7.18095 7.35244 4.61766C7.35244 2.05338 9.39592 0 11.9444 0ZM18.1783 0.770068C20.6398 0.770068 22.5729 3.09953 21.9145 5.69426C21.4701 7.44111 19.8613 8.60142 18.0689 8.55426C17.8891 8.54935 17.7123 8.53264 17.5414 8.50317C17.4173 8.48155 17.3548 8.34106 17.4251 8.23692C18.1089 7.22496 18.4986 6.00767 18.4986 4.70097C18.4986 3.33729 18.0728 2.06596 17.3333 1.02355C17.3099 0.991126 17.2923 0.94102 17.3157 0.903685C17.3353 0.873228 17.3714 0.857509 17.4056 0.849649C17.6547 0.79856 17.9106 0.770068 18.1783 0.770068ZM5.82101 0.76997C6.08866 0.76997 6.34458 0.798462 6.59464 0.849551C6.62785 0.85741 6.66497 0.874113 6.68451 0.903587C6.70697 0.940921 6.69037 0.991028 6.66692 1.02345C5.92748 2.06586 5.5016 3.33719 5.5016 4.70087C5.5016 6.00757 5.89134 7.22486 6.57511 8.23682C6.64544 8.34096 6.58292 8.48146 6.45887 8.50307C6.28695 8.53353 6.11112 8.54925 5.93139 8.55416C4.13896 8.60132 2.53016 7.44101 2.08572 5.69416C1.42638 3.09943 3.35947 0.76997 5.82101 0.76997Z" fill="currentColor"/>
</svg>
