<svg width="30" height="30" viewBox="0 0 30 30" fill="currentColor" xmlns="http://www.w3.org/2000/svg">
<path d="M14.9444 17.4978C18.6875 17.4978 21.8836 18.0912 21.8836 20.4658C21.8836 22.8395 18.708 23.4545 14.9444 23.4545C11.2013 23.4545 8.00519 22.8611 8.00519 20.4875C8.00519 18.1128 11.1808 17.4978 14.9444 17.4978ZM20.9292 16.0679C22.3602 16.0413 23.8987 16.2378 24.4671 16.3773C25.6715 16.6141 26.4637 17.0975 26.7919 17.8C27.0694 18.3767 27.0694 19.0458 26.7919 19.6215C26.2899 20.7111 24.6713 21.0608 24.0422 21.1512C23.9123 21.1709 23.8078 21.0579 23.8215 20.9272C24.1429 17.9081 21.5866 16.4766 20.9253 16.1474C20.8969 16.1327 20.8911 16.1101 20.894 16.0964C20.896 16.0865 20.9077 16.0708 20.9292 16.0679ZM8.80209 16.0658L9.07156 16.0683C9.09305 16.0712 9.1038 16.0869 9.10575 16.0958C9.10868 16.1105 9.10282 16.1321 9.07547 16.1478C8.4132 16.477 5.8569 17.9084 6.17827 20.9266C6.19195 21.0583 6.08841 21.1703 5.95849 21.1516C5.32943 21.0612 3.71087 20.7115 3.20879 19.6219C2.9304 19.0452 2.9304 18.3771 3.20879 17.8004C3.537 17.0979 4.32821 16.6145 5.53261 16.3768C6.10208 16.2382 7.63957 16.0417 9.07156 16.0683L8.80209 16.0658ZM14.9444 6C17.4929 6 19.5363 8.05338 19.5363 10.6177C19.5363 13.1809 17.4929 15.2363 14.9444 15.2363C12.3959 15.2363 10.3524 13.1809 10.3524 10.6177C10.3524 8.05338 12.3959 6 14.9444 6ZM21.1783 6.77007C23.6398 6.77007 25.5729 9.09953 24.9145 11.6943C24.4701 13.4411 22.8613 14.6014 21.0689 14.5543C20.8891 14.5493 20.7123 14.5326 20.5414 14.5032C20.4173 14.4816 20.3548 14.3411 20.4251 14.2369C21.1089 13.225 21.4986 12.0077 21.4986 10.701C21.4986 9.33729 21.0728 8.06596 20.3333 7.02355C20.3099 6.99113 20.2923 6.94102 20.3157 6.90369C20.3353 6.87323 20.3714 6.85751 20.4056 6.84965C20.6547 6.79856 20.9106 6.77007 21.1783 6.77007ZM8.82101 6.76997C9.08866 6.76997 9.34458 6.79846 9.59464 6.84955C9.62785 6.85741 9.66497 6.87411 9.68451 6.90359C9.70697 6.94092 9.69037 6.99103 9.66692 7.02345C8.92748 8.06586 8.5016 9.33719 8.5016 10.7009C8.5016 12.0076 8.89134 13.2249 9.57511 14.2368C9.64544 14.341 9.58292 14.4815 9.45887 14.5031C9.28695 14.5335 9.11112 14.5492 8.93139 14.5542C7.13896 14.6013 5.53016 13.441 5.08572 11.6942C4.42638 9.09943 6.35947 6.76997 8.82101 6.76997Z" fill="currentColor"/>
</svg>
