<svg width="32" height="30" viewBox="0 0 32 30" fill="currentColor" xmlns="http://www.w3.org/2000/svg">
<path d="M28.653 8.14026V8.11682C28.6409 7.82965 28.6289 7.52491 28.6229 7.185C28.5988 5.53233 27.245 4.16097 25.5481 4.0672C22.004 3.8738 19.2662 2.74858 16.9255 0.527446L16.9075 0.509865C16.1433 -0.169955 14.994 -0.169955 14.2298 0.509865L14.2118 0.527446C11.8711 2.74858 9.13327 3.8738 5.58916 4.0672C3.89231 4.16097 2.53845 5.52647 2.51438 7.185C2.50836 7.52491 2.50235 7.82965 2.4843 8.11682V8.16956C2.41811 11.6859 2.32785 16.0637 3.83214 20.0371C4.65649 22.2231 5.91408 24.1219 7.55677 25.6808C9.42811 27.4565 11.8771 28.8689 14.8375 29.8769C14.9338 29.9121 15.0361 29.9355 15.1384 29.959C15.2828 29.9883 15.4272 30 15.5716 30C15.7161 30 15.8605 29.9883 16.0049 29.959C16.1072 29.9414 16.2095 29.9121 16.3057 29.8769C19.2662 28.8689 21.7152 27.4565 23.5805 25.6808C25.2232 24.116 26.4748 22.2172 27.3051 20.0313C28.8034 16.052 28.7192 11.6624 28.653 8.14026ZM15.5656 22.481C11.3295 22.481 7.88772 19.1287 7.88772 15.0029C7.88772 10.8771 11.3295 7.52491 15.5656 7.52491C19.8017 7.52491 23.2435 10.8771 23.2435 15.0029C23.2435 19.1287 19.8017 22.481 15.5656 22.481Z" fill="currentColor"/>
<path d="M15.6261 19.6855C16.5768 19.4628 17.3711 18.9822 17.9728 18.2321C18.9957 16.9603 19.3989 15.5304 18.9957 13.9305C18.8754 13.4558 18.6347 13.0397 18.3158 12.6646C17.2688 11.469 15.5539 11.4925 14.519 12.6997C13.3035 14.1239 13.49 16.4974 14.9161 17.6343C14.9342 17.6519 14.9522 17.6753 14.9883 17.7105C14.5972 17.775 14.2482 17.7163 13.9173 17.564C13.1711 17.2123 12.7499 16.6029 12.5393 15.8468C12.088 14.1942 12.9365 11.7621 15.0064 10.8947C16.5889 10.2325 18.4241 10.7599 19.4892 12.1782C21.6072 14.9971 19.9645 18.9998 16.4264 19.6327C16.1617 19.6796 15.8909 19.6913 15.6261 19.7206C15.6321 19.7148 15.6261 19.7031 15.6261 19.6855Z" fill="currentColor"/>
<path d="M16.1435 12.2544C16.4564 12.1958 16.7452 12.2251 17.022 12.3247C17.8403 12.6177 18.3157 13.2272 18.5504 14.0067C18.8753 15.085 18.6827 16.1223 18.1833 17.1069C17.6538 18.1442 16.8415 18.8885 15.6802 19.2167C14.1398 19.6504 12.5031 19.0233 11.5524 17.6754C9.58479 14.874 11.1673 11.0413 14.579 10.3497C14.8739 10.2911 15.1868 10.2735 15.4997 10.2794C15.4876 10.2852 15.4696 10.297 15.4575 10.3028C13.863 10.7248 12.8581 11.7504 12.3045 13.2272C11.9315 14.2235 11.8352 15.2432 12.2083 16.2688C12.4008 16.7963 12.7017 17.2593 13.147 17.6226C14.212 18.5017 15.7042 18.3376 16.6249 17.2593C17.8343 15.841 17.6478 13.4617 16.2097 12.3247C16.1856 12.3071 16.1736 12.2837 16.1435 12.2544Z" fill="currentColor"/>
</svg>
