<svg width="31" height="31" viewBox="0 0 31 31" fill="currentColor" xmlns="http://www.w3.org/2000/svg">
<g clip-path="url(#clip0_1330_12949)">
<path d="M28.0883 13.0285C28.6955 13.0109 29.1627 12.5539 29.1627 11.9504V7.56169C29.1627 5.0949 27.1657 3.09099 24.7074 3.09099H23.271V1.99529C23.271 1.38591 22.798 0.870289 22.1965 0.852711C21.5659 0.835132 21.0462 1.33904 21.0462 1.96599V3.07927H15.9837V1.99529C15.9837 1.38591 15.5107 0.870289 14.9093 0.852711C14.2786 0.835132 13.7589 1.33904 13.7589 1.96599V3.07927H8.74893V1.98357C8.74893 1.3742 8.27596 0.85857 7.67453 0.840992C7.0439 0.823414 6.52421 1.32732 6.52421 1.95427V3.06755H5.13449C2.6762 3.09099 0.679199 5.0949 0.679199 7.56169V24.9758C0.679199 27.4426 2.6762 29.4465 5.13449 29.4465H24.7132C26.1789 29.4465 25.9453 27.214 24.7132 27.214H5.13449C3.90242 27.214 2.90392 26.2121 2.90392 24.9758V7.56169C2.90392 6.32537 3.90242 5.32341 5.13449 5.32341H6.51837V6.41326C6.51837 7.02263 6.99134 7.53826 7.59278 7.55584C8.22341 7.57341 8.74309 7.06951 8.74309 6.44255V5.32927H13.7414V6.41326C13.7414 7.02263 14.2144 7.53826 14.8158 7.55584C15.4465 7.57341 15.9661 7.06951 15.9661 6.44255V5.32927H21.0287V6.42498C21.0287 7.03435 21.5017 7.54998 22.1031 7.56755C22.7337 7.58513 23.2534 7.08123 23.2534 6.45427V5.34099H24.7191C25.9511 5.34099 26.9496 6.34295 26.9496 7.57927V11.8625C26.9438 12.4777 27.4635 13.0519 28.0883 13.0285Z" fill="currentColor"/>
<path d="M24.0536 16.9718L26.4943 15.5539L24.0536 14.1359L21.6128 15.5597L24.0536 16.9718Z" fill="currentColor"/>
<path d="M23.8841 17.2824L21.4375 15.8644V18.6945L23.8783 20.1125V17.2824H23.8841Z" fill="currentColor"/>
<path d="M24.2285 17.2824V20.1125L26.6693 18.6945V15.8644L24.2285 17.2824Z" fill="currentColor"/>
<path d="M20.3748 22.1457L22.8156 20.7277L20.3748 19.3097L17.9282 20.7277L20.3748 22.1457Z" fill="currentColor"/>
<path d="M20.1996 22.4504L17.7588 21.0324V23.8625L20.1996 25.2804V22.4504Z" fill="currentColor"/>
<path d="M20.5442 22.4504V25.2804L22.985 23.8625V21.0324L20.5442 22.4504Z" fill="currentColor"/>
<path d="M27.6971 19.3097L25.2505 20.7277L27.6913 22.1457L30.132 20.7277L27.6971 19.3097Z" fill="currentColor"/>
<path d="M27.5218 22.4504L25.0811 21.0324V23.8625L27.5218 25.2804V22.4504Z" fill="currentColor"/>
<path d="M27.8665 22.4504V25.2804L30.3072 23.8625V21.0324L27.8665 22.4504Z" fill="currentColor"/>
<path d="M7.63361 13.6965C8.24634 13.6965 8.74305 13.198 8.74305 12.5832C8.74305 11.9683 8.24634 11.4699 7.63361 11.4699C7.02088 11.4699 6.52417 11.9683 6.52417 12.5832C6.52417 13.198 7.02088 13.6965 7.63361 13.6965Z" fill="currentColor"/>
<path d="M17.315 13.6965C17.9277 13.6965 18.4245 13.198 18.4245 12.5832C18.4245 11.9683 17.9277 11.4699 17.315 11.4699C16.7023 11.4699 16.2056 11.9683 16.2056 12.5832C16.2056 13.198 16.7023 13.6965 17.315 13.6965Z" fill="currentColor"/>
<path d="M7.63361 18.5539C8.24634 18.5539 8.74305 18.0554 8.74305 17.4406C8.74305 16.8257 8.24634 16.3273 7.63361 16.3273C7.02088 16.3273 6.52417 16.8257 6.52417 17.4406C6.52417 18.0554 7.02088 18.5539 7.63361 18.5539Z" fill="currentColor"/>
<path d="M7.63361 23.4113C8.24634 23.4113 8.74305 22.9129 8.74305 22.298C8.74305 21.6832 8.24634 21.1847 7.63361 21.1847C7.02088 21.1847 6.52417 21.6832 6.52417 22.298C6.52417 22.9129 7.02088 23.4113 7.63361 23.4113Z" fill="currentColor"/>
<path d="M12.4744 13.6965C13.0872 13.6965 13.5839 13.198 13.5839 12.5832C13.5839 11.9683 13.0872 11.4699 12.4744 11.4699C11.8617 11.4699 11.365 11.9683 11.365 12.5832C11.365 13.198 11.8617 13.6965 12.4744 13.6965Z" fill="currentColor"/>
<path d="M12.4744 18.5539C13.0872 18.5539 13.5839 18.0554 13.5839 17.4406C13.5839 16.8257 13.0872 16.3273 12.4744 16.3273C11.8617 16.3273 11.365 16.8257 11.365 17.4406C11.365 18.0554 11.8617 18.5539 12.4744 18.5539Z" fill="currentColor"/>
<path d="M12.4744 23.4113C13.0872 23.4113 13.5839 22.9129 13.5839 22.298C13.5839 21.6832 13.0872 21.1847 12.4744 21.1847C11.8617 21.1847 11.365 21.6832 11.365 22.298C11.365 22.9129 11.8617 23.4113 12.4744 23.4113Z" fill="currentColor"/>
</g>
<defs>
<clipPath id="clip0_1330_12949">
<rect width="29.8966" height="30" fill="white" transform="translate(0.5625 0.214035)"/>
</clipPath>
</defs>
</svg>
