<svg width="31" height="31" viewBox="0 0 31 31" fill="currentColor" xmlns="http://www.w3.org/2000/svg">
<g clip-path="url(#clip0_1330_12956)">
<path d="M15.4582 14.6633C17.4377 14.6633 19.1486 13.9484 20.55 12.548C21.9514 11.1418 22.6579 9.42497 22.6579 7.43865C22.6579 5.45232 21.9514 3.73552 20.5558 2.32927C19.1544 0.92302 17.4436 0.214035 15.4641 0.214035C13.4846 0.214035 11.7737 0.928879 10.3723 2.32927C8.97092 3.72966 8.25854 5.45232 8.25854 7.43865C8.25854 9.42497 8.97092 11.1418 10.3665 12.548C11.7679 13.9543 13.4846 14.6633 15.4582 14.6633Z" fill="currentColor"/>
<path d="M28.0591 23.2824C28.0183 22.6965 27.9365 22.0578 27.8197 21.384C27.6971 20.7043 27.5395 20.0656 27.3526 19.4797C27.1599 18.8761 26.8972 18.2726 26.5702 17.7043C26.2315 17.1066 25.8344 16.591 25.3906 16.1633C24.9235 15.7179 24.3571 15.3605 23.6973 15.0968C23.0433 14.839 22.3134 14.7043 21.5368 14.7043C21.2332 14.7043 20.9354 14.8273 20.369 15.2023C20.0186 15.4308 19.6099 15.6945 19.1486 15.9933C18.7574 16.2453 18.226 16.4797 17.572 16.6906C16.9355 16.8957 16.2815 17.0011 15.6451 17.0011C15.0086 17.0011 14.3546 16.8957 13.7181 16.6906C13.0642 16.4797 12.5328 16.2453 12.1416 15.9933C11.6861 15.7004 11.2774 15.4367 10.9212 15.2023C10.3489 14.8273 10.057 14.7043 9.75335 14.7043C8.97674 14.7043 8.25269 14.839 7.59286 15.0968C6.93303 15.3605 6.36663 15.7179 5.8995 16.1633C5.45572 16.591 5.05866 17.1066 4.71999 17.7043C4.39299 18.2785 4.13023 18.8761 3.93754 19.4797C3.75069 20.0656 3.59303 20.7043 3.47041 21.384C3.34778 22.0578 3.26603 22.6965 3.231 23.2824C3.19012 23.8566 3.17261 24.4543 3.17261 25.0519C3.17261 26.6164 3.66894 27.8879 4.64992 28.8195C5.61338 29.7394 6.89216 30.2082 8.45122 30.2082H22.8448C24.398 30.2082 25.6768 29.7394 26.6461 28.8195C27.6271 27.8879 28.1234 26.6164 28.1234 25.0519C28.1175 24.4484 28.0942 23.8508 28.0591 23.2824Z" fill="currentColor"/>
<path d="M18.467 20.7707C18.6247 20.9289 18.6247 21.1867 18.467 21.3449L15.7518 24.0695C15.5941 24.2277 15.3372 24.2277 15.1796 24.0695L13.8833 22.7687C13.7256 22.6105 13.7256 22.3527 13.8833 22.1945C14.0409 22.0363 14.2979 22.0363 14.4555 22.1945L15.4598 23.2023L17.8889 20.7648C18.0466 20.6066 18.3094 20.6066 18.467 20.7707ZM21.3516 22.4172C21.3516 25.2941 19.0334 27.6203 16.1664 27.6203C13.2994 27.6203 10.9812 25.2941 10.9812 22.4172C10.9812 19.5402 13.2994 17.214 16.1664 17.214C19.0334 17.214 21.3516 19.5461 21.3516 22.4172ZM20.5399 22.4172C20.5399 19.9914 18.5838 18.0285 16.1664 18.0285C13.749 18.0285 11.7928 19.9914 11.7928 22.4172C11.7928 24.8429 13.749 26.8058 16.1664 26.8058C18.5838 26.8058 20.5399 24.8429 20.5399 22.4172Z" fill="white"/>
</g>
<defs>
<clipPath id="clip0_1330_12956">
<rect width="29.8966" height="30" fill="white" transform="translate(0.5625 0.214035)"/>
</clipPath>
</defs>
</svg>
