<svg width="31" height="31" viewBox="0 0 31 31" fill="currentColor" xmlns="http://www.w3.org/2000/svg">
<g clip-path="url(#clip0_1330_12964)">
<path d="M26.4358 23.1412C25.5832 23.1412 24.7891 22.7193 24.3045 22.0162L23.0374 20.1705C21.5484 22.8541 18.7105 24.5885 15.5107 24.5885C11.0437 24.5885 7.36503 21.1666 6.92709 16.8014H7.74457C8.06573 16.8014 8.35768 16.6256 8.5095 16.3385C8.66132 16.0514 8.63796 15.7115 8.45695 15.4478L7.20153 13.6139L5.29796 10.8307C5.13446 10.5963 4.8717 10.4557 4.58558 10.4557C4.55055 10.4557 4.51551 10.4557 4.48048 10.4615C4.44544 10.4674 4.41041 10.4732 4.37537 10.4791C4.29362 10.5025 4.21187 10.5318 4.13597 10.5787C4.03086 10.6432 3.94327 10.7252 3.8732 10.8307L0.708372 15.4478C0.527358 15.7115 0.504001 16.0572 0.65582 16.3385C0.807638 16.6256 1.0996 16.8014 1.42075 16.8014H2.31414C2.51852 20.0182 3.86736 23.0182 6.16216 25.3209C8.66132 27.8287 11.978 29.2057 15.5107 29.2057C19.0434 29.2057 22.3659 27.8228 24.8592 25.3209C25.5248 24.6529 26.1088 23.9264 26.6168 23.1412C26.5584 23.1353 26.4941 23.1412 26.4358 23.1412Z" fill="currentColor"/>
<path d="M15.68 20.4283C16.6026 20.2057 17.3734 19.7252 17.9573 18.9752C18.9499 17.7037 19.3412 16.274 18.9499 14.6744C18.8332 14.1998 18.5996 13.7838 18.2901 13.4088C17.2741 12.2135 15.6099 12.2369 14.6056 13.4439C13.4261 14.8678 13.6071 17.2408 14.991 18.3775C15.0085 18.3951 15.026 18.4185 15.0611 18.4537C14.6815 18.5182 14.3428 18.4596 14.0217 18.3072C13.2976 17.9557 12.8889 17.3463 12.6845 16.5904C12.2466 14.9381 13.0699 12.5064 15.0786 11.6392C16.6143 10.9771 18.3952 11.5045 19.4288 12.9225C21.4841 15.7408 19.8901 19.7428 16.4566 20.3756C16.1997 20.4224 15.9369 20.4342 15.68 20.4635C15.6858 20.4635 15.68 20.4459 15.68 20.4283Z" fill="currentColor"/>
<path d="M16.1822 12.9986C16.4859 12.94 16.7662 12.9693 17.0348 13.0689C17.8289 13.3619 18.2902 13.9713 18.5179 14.7506C18.8332 15.8287 18.6464 16.8658 18.1617 17.8502C17.6479 18.8873 16.8596 19.6314 15.7326 19.9596C14.2378 20.3932 12.6495 19.7662 11.7269 18.4185C9.81754 15.6178 11.3532 11.7857 14.664 11.0943C14.9502 11.0357 15.2538 11.0182 15.5574 11.024C15.5458 11.0299 15.5282 11.0416 15.5166 11.0475C13.9692 11.4693 12.994 12.4947 12.4568 13.9713C12.0948 14.9674 12.0014 15.9869 12.3634 17.0123C12.5503 17.5396 12.8422 18.0025 13.2743 18.3658C14.3079 19.2447 15.756 19.0807 16.6494 18.0025C17.823 16.5846 17.642 14.2057 16.2465 13.0689C16.2231 13.0514 16.2114 13.0338 16.1822 12.9986Z" fill="currentColor"/>
<path d="M30.3597 15.524C30.2078 15.2369 29.9159 15.0611 29.5947 15.0611H28.7072C28.5028 11.8443 27.1539 8.84433 24.8592 6.5416C22.36 4.03378 19.0433 2.65683 15.5106 2.65683C11.9779 2.65683 8.65546 4.03964 6.16213 6.54745C5.49647 7.21542 4.91255 7.94199 4.40454 8.72714C4.46293 8.72128 4.52716 8.72128 4.58556 8.72128C5.43807 8.72128 6.2322 9.14316 6.71685 9.84628L7.98395 11.692C9.47294 9.00839 12.3108 7.27402 15.5106 7.27402C19.9776 7.27402 23.6563 10.6959 24.0942 15.0611H23.2767C22.9556 15.0611 22.6636 15.2369 22.5118 15.524C22.36 15.8111 22.3833 16.151 22.5644 16.4146L23.8198 18.2486L25.7234 21.0318C25.7642 21.0904 25.8109 21.1432 25.8635 21.19C26.0211 21.3307 26.2197 21.4068 26.4357 21.4068C26.7218 21.4068 26.9846 21.2662 27.1481 21.0318L28.2926 19.3678L30.3129 16.4205C30.4881 16.151 30.5115 15.8111 30.3597 15.524Z" fill="currentColor"/>
</g>
<defs>
<clipPath id="clip0_1330_12964">
<rect width="29.8966" height="30" fill="white" transform="translate(0.5625 0.928314)"/>
</clipPath>
</defs>
</svg>
