<svg width="31" height="31" viewBox="0 0 31 31" fill="currentColor" xmlns="http://www.w3.org/2000/svg">
<g clip-path="url(#clip0_1330_12971)">
<path d="M18.6055 7.6373C19.9894 8.50449 20.9587 9.98105 21.1339 11.6861C21.7003 11.9498 22.3251 12.1021 22.9849 12.1021C25.4082 12.1021 27.3701 10.1334 27.3701 7.70175C27.3701 5.27011 25.4082 3.30136 22.9849 3.30136C20.585 3.30722 18.6406 5.24081 18.6055 7.6373ZM15.7327 16.649C18.1559 16.649 20.1179 14.6803 20.1179 12.2486C20.1179 9.81699 18.1501 7.84824 15.7327 7.84824C13.3152 7.84824 11.3474 9.81699 11.3474 12.2486C11.3474 14.6803 13.3094 16.649 15.7327 16.649ZM17.5895 16.9478H13.87C10.7752 16.9478 8.25853 19.4732 8.25853 22.5846V27.149L8.2702 27.2193L8.58552 27.3189C11.5401 28.2447 14.1035 28.5553 16.2173 28.5553C20.3456 28.5553 22.7338 27.3775 22.8798 27.3014L23.1718 27.1549H23.201V22.5904C23.2068 19.4732 20.6843 16.9478 17.5895 16.9478ZM24.8476 12.4068H21.1573C21.1164 13.8893 20.4857 15.2252 19.4873 16.1861C22.2375 17.0064 24.252 19.567 24.252 22.5904V23.9967C27.8957 23.8619 29.9978 22.8248 30.1379 22.7545L30.4299 22.608H30.4591V18.0435C30.4591 14.9322 27.9424 12.4068 24.8476 12.4068ZM8.03664 12.1021C8.895 12.1021 9.69496 11.8502 10.3665 11.4225C10.5825 10.0162 11.3299 8.78574 12.4043 7.94785C12.4102 7.86582 12.416 7.78378 12.416 7.70175C12.416 5.27011 10.4541 3.30136 8.0308 3.30136C5.60754 3.30136 3.64558 5.27011 3.64558 7.70175C3.65142 10.1334 5.61338 12.1021 8.03664 12.1021ZM11.9781 16.1803C10.9854 15.2252 10.3548 13.8951 10.3139 12.4244C10.1796 12.4127 10.0395 12.401 9.89933 12.401H6.17394C3.07918 12.401 0.5625 14.9264 0.5625 18.0318V22.5963L0.574178 22.6666L0.889493 22.7662C3.2602 23.5103 5.37398 23.8502 7.21332 23.9615V22.5846C7.21332 19.5611 9.22199 17.0006 11.9781 16.1803Z" fill="currentColor"/>
<path d="M15.7911 27.8463C16.7137 27.6236 17.4845 27.1432 18.0684 26.3932C19.061 25.1217 19.4523 23.692 19.061 22.0924C18.9442 21.6178 18.7107 21.2017 18.4012 20.8267C17.3852 19.6314 15.721 19.6549 14.7167 20.8619C13.5372 22.2857 13.7182 24.6588 15.1021 25.7955C15.1196 25.8131 15.1371 25.8365 15.1721 25.8717C14.7926 25.9361 14.4539 25.8775 14.1328 25.7252C13.4087 25.3736 13 24.7642 12.7956 24.0084C12.3577 22.356 13.181 19.9244 15.1897 19.0572C16.7254 18.3951 18.5063 18.9225 19.5398 20.3404C21.5952 23.1588 20.0011 27.1607 16.5677 27.7935C16.3108 27.8404 16.048 27.8521 15.7911 27.8814C15.7911 27.8756 15.7911 27.8639 15.7911 27.8463Z" fill="white"/>
<path d="M16.2875 20.4166C16.5911 20.358 16.8714 20.3873 17.14 20.4869C17.9341 20.7799 18.3954 21.3893 18.6231 22.1685C18.9384 23.2467 18.7516 24.2838 18.2669 25.2682C17.7531 26.3053 16.9648 27.0494 15.8378 27.3775C14.343 27.8111 12.7548 27.1842 11.8322 25.8365C9.92276 23.0357 11.4585 19.2037 14.7693 18.5123C15.0554 18.4537 15.359 18.4361 15.6627 18.442C15.651 18.4478 15.6335 18.4596 15.6218 18.4654C14.0744 18.8873 13.0993 19.9127 12.5621 21.3892C12.2 22.3853 12.1066 23.4049 12.4686 24.4303C12.6555 24.9576 12.9475 25.4205 13.3796 25.7838C14.4131 26.6627 15.8612 26.4986 16.7546 25.4205C17.9283 24.0025 17.7473 21.6236 16.3517 20.4869C16.3342 20.4693 16.3167 20.4459 16.2875 20.4166Z" fill="white"/>
</g>
<defs>
<clipPath id="clip0_1330_12971">
<rect width="29.8966" height="30" fill="white" transform="translate(0.5625 0.928314)"/>
</clipPath>
</defs>
</svg>
