<svg width="30" height="30" viewBox="0 0 30 30" fill="none" xmlns="http://www.w3.org/2000/svg">
<path d="M19.875 7.5H7.125C6.6279 7.5006 6.15133 7.69833 5.79983 8.04983C5.44833 8.40133 5.2506 8.8779 5.25 9.375V23.625C5.25 24.6593 6.0915 25.5 7.125 25.5H19.875C20.9093 25.5 21.75 24.6593 21.75 23.625V9.375C21.75 8.3415 20.9093 7.5 19.875 7.5ZM20.25 23.625C20.25 23.8312 20.0813 24 19.875 24H7.125C7.02554 24 6.93016 23.9605 6.85984 23.8902C6.78951 23.8198 6.75 23.7245 6.75 23.625V9.375C6.75 9.27554 6.78951 9.18016 6.85984 9.10983C6.93016 9.03951 7.02554 9 7.125 9H19.875C19.9745 9 20.0698 9.03951 20.1402 9.10983C20.2105 9.18016 20.25 9.27554 20.25 9.375V23.625Z" fill="#175CD3"/>
<path d="M22.875 4.5H10.125C9.92609 4.5 9.73532 4.57902 9.59467 4.71967C9.45402 4.86032 9.375 5.05109 9.375 5.25C9.375 5.44891 9.45402 5.63968 9.59467 5.78033C9.73532 5.92098 9.92609 6 10.125 6H22.875C22.9745 6 23.0698 6.03951 23.1402 6.10984C23.2105 6.18016 23.25 6.27554 23.25 6.375V20.625C23.25 20.8239 23.329 21.0147 23.4697 21.1553C23.6103 21.296 23.8011 21.375 24 21.375C24.1989 21.375 24.3897 21.296 24.5303 21.1553C24.671 21.0147 24.75 20.8239 24.75 20.625V6.375C24.75 5.3415 23.9093 4.5 22.875 4.5Z" fill="#175CD3"/>
<path d="M17.25 11.4375H9.75C9.55109 11.4375 9.36032 11.5165 9.21967 11.6572C9.07902 11.7978 9 11.9886 9 12.1875C9 12.3864 9.07902 12.5772 9.21967 12.7178C9.36032 12.8585 9.55109 12.9375 9.75 12.9375H17.25C17.4489 12.9375 17.6397 12.8585 17.7803 12.7178C17.921 12.5772 18 12.3864 18 12.1875C18 11.9886 17.921 11.7978 17.7803 11.6572C17.6397 11.5165 17.4489 11.4375 17.25 11.4375ZM17.25 15.1875H9.75C9.55109 15.1875 9.36032 15.2665 9.21967 15.4072C9.07902 15.5478 9 15.7386 9 15.9375C9 16.1364 9.07902 16.3272 9.21967 16.4678C9.36032 16.6085 9.55109 16.6875 9.75 16.6875H17.25C17.4489 16.6875 17.6397 16.6085 17.7803 16.4678C17.921 16.3272 18 16.1364 18 15.9375C18 15.7386 17.921 15.5478 17.7803 15.4072C17.6397 15.2665 17.4489 15.1875 17.25 15.1875ZM14.25 18.906H9.75C9.55109 18.906 9.36032 18.985 9.21967 19.1257C9.07902 19.2663 9 19.4571 9 19.656C9 19.8549 9.07902 20.0457 9.21967 20.1863C9.36032 20.327 9.55109 20.406 9.75 20.406H14.25C14.4489 20.406 14.6397 20.327 14.7803 20.1863C14.921 20.0457 15 19.8549 15 19.656C15 19.4571 14.921 19.2663 14.7803 19.1257C14.6397 18.985 14.4489 18.906 14.25 18.906Z" fill="#175CD3"/>
</svg>
