<svg width="30" height="30" viewBox="0 0 30 30" fill="currentColor" xmlns="http://www.w3.org/2000/svg">
<path d="M5.3584 6.36667L5.28749 6.30502C4.9412 6.00672 4.90227 5.48416 5.20059 5.13786C5.23442 5.09859 5.27186 5.06259 5.31242 5.03033C7.01407 3.67681 9.29564 3 12.1572 3C18.7814 3 24.1515 8.37259 24.1515 15L24.1499 15.1984C24.0439 21.7343 18.7152 27 12.1572 27C9.29564 27 7.01407 26.3232 5.31242 24.9697C5.27185 24.9374 5.2344 24.9014 5.20057 24.8621C4.90525 24.5193 4.94045 24.0037 5.27717 23.704L5.28749 23.695L5.3584 23.6333C7.66349 21.6109 8.82433 18.7701 8.84099 15.1111L8.84112 15C8.84766 11.2873 7.68676 8.40954 5.3584 6.36667Z" fill="currentColor"/>
</svg>
