<svg width="30" height="30" viewBox="0 0 30 30" fill="currentColor" xmlns="http://www.w3.org/2000/svg">
<g clip-path="url(#clip0_1002_4144)">
<path d="M15 3C8.37257 3 3 8.37429 3 15C3 21.6274 8.37257 27 15 27C21.6291 27 27 21.6274 27 15C27.0017 8.37429 21.6291 3 15 3ZM9.72 11.9794C9.72 11.9794 9.32743 6.62229 14.976 6.62229C20.6246 6.62229 20.2817 11.928 20.2817 11.928C20.2817 11.928 20.328 13.5994 18.4149 15.072C16.5 16.5463 16.1057 16.4451 16.1057 18.6583H13.5017C13.5017 18.6583 12.696 15.4251 16.4469 13.5514C17.2354 13.1571 17.532 12.7149 17.532 11.2423C17.532 9.76971 16.596 8.88171 15.2211 8.88171C13.8463 8.88171 12.4217 9.12857 12.4217 11.928L9.72 11.9794ZM13.4537 20.7223H16.1057V23.376H13.4537V20.7223Z" fill="currentColor"/>
</g>
<defs>
<clipPath id="clip0_1002_4144">
<rect width="24" height="24" fill="white" transform="translate(3 3)"/>
</clipPath>
</defs>
</svg>
