<svg width="24" height="24" viewBox="0 0 24 24" fill="none" xmlns="http://www.w3.org/2000/svg">
<path d="M19.3854 11.1092H10.595C10.4617 10.6402 10.179 10.2274 9.78992 9.93349C9.40083 9.63958 8.9265 9.48058 8.43888 9.48058C7.95126 9.48058 7.47693 9.63958 7.08784 9.93349C6.69874 10.2274 6.4161 10.6402 6.28277 11.1092H4.61365C4.4509 11.1092 4.29481 11.1739 4.17973 11.2889C4.06465 11.404 4 11.5601 4 11.7229C4 11.8856 4.06465 12.0417 4.17973 12.1568C4.29481 12.2719 4.4509 12.3365 4.61365 12.3365H6.28277C6.4161 12.8055 6.69874 13.2183 7.08784 13.5122C7.47693 13.8061 7.95126 13.9651 8.43888 13.9651C8.9265 13.9651 9.40083 13.8061 9.78992 13.5122C10.179 13.2183 10.4617 12.8055 10.595 12.3365H19.3854C19.5481 12.3365 19.7042 12.2719 19.8193 12.1568C19.9344 12.0417 19.999 11.8856 19.999 11.7229C19.999 11.5601 19.9344 11.404 19.8193 11.2889C19.7042 11.1739 19.5481 11.1092 19.3854 11.1092ZM8.43888 12.7381C8.23805 12.7383 8.04167 12.6789 7.87459 12.5675C7.70751 12.456 7.57723 12.2975 7.50024 12.112C7.42325 11.9266 7.40301 11.7224 7.44207 11.5254C7.48113 11.3284 7.57774 11.1474 7.71968 11.0053C7.86163 10.8633 8.04252 10.7665 8.23948 10.7272C8.43644 10.688 8.64061 10.708 8.82618 10.7848C9.01174 10.8616 9.17036 10.9918 9.28195 11.1587C9.39355 11.3257 9.45312 11.522 9.45312 11.7229C9.45286 11.9919 9.34595 12.2498 9.15583 12.4401C8.9657 12.6304 8.70788 12.7376 8.43888 12.7381ZM19.3854 5.60994H18.1983C18.0619 5.14527 17.7786 4.73729 17.3909 4.44707C17.0032 4.15685 16.5319 4 16.0476 4C15.5633 4 15.0921 4.15685 14.7044 4.44707C14.3166 4.73729 14.0334 5.14527 13.8969 5.60994H4.61659C4.45384 5.60994 4.29776 5.6746 4.18268 5.78968C4.0676 5.90476 4.00295 6.06084 4.00295 6.22359C4.00295 6.30418 4.01882 6.38397 4.04966 6.45842C4.0805 6.53288 4.1257 6.60052 4.18268 6.65751C4.23966 6.71449 4.30731 6.75969 4.38176 6.79053C4.45621 6.82137 4.53601 6.83724 4.61659 6.83724H13.8881C14.019 7.30953 14.3012 7.72589 14.6913 8.02256C15.0814 8.31923 15.558 8.47986 16.0481 8.47986C16.5382 8.47986 17.0148 8.31923 17.4049 8.02256C17.7951 7.72589 18.0772 7.30953 18.2081 6.83724H19.3864C19.5491 6.83724 19.7052 6.77259 19.8203 6.65751C19.9353 6.54243 20 6.38634 20 6.22359C20 6.14292 19.9841 6.06305 19.9532 5.98853C19.9223 5.91402 19.877 5.84633 19.8199 5.78933C19.7628 5.73233 19.6951 5.68715 19.6205 5.65637C19.5459 5.62559 19.466 5.60982 19.3854 5.60994ZM16.0471 7.25648C15.8465 7.25648 15.6504 7.197 15.4836 7.08555C15.3169 6.97411 15.1869 6.81571 15.1101 6.63038C15.0333 6.44505 15.0132 6.24112 15.0524 6.04438C15.0915 5.84764 15.1881 5.66692 15.33 5.52507C15.4718 5.38323 15.6525 5.28663 15.8493 5.2475C16.046 5.20836 16.2499 5.22845 16.4353 5.30521C16.6206 5.38198 16.779 5.51198 16.8904 5.67877C17.0019 5.84556 17.0614 6.04165 17.0614 6.24225C17.0611 6.51082 16.9544 6.76835 16.7647 6.95844C16.575 7.14853 16.3177 7.2557 16.0491 7.25648H16.0471ZM19.3854 16.6095H16.5115C16.3782 16.1404 16.0956 15.7276 15.7065 15.4337C15.3174 15.1398 14.843 14.9808 14.3554 14.9808C13.8678 14.9808 13.3935 15.1398 13.0044 15.4337C12.6153 15.7276 12.3326 16.1404 12.1993 16.6095H4.61659C4.45384 16.6095 4.29776 16.6741 4.18268 16.7892C4.0676 16.9043 4.00295 17.0604 4.00295 17.2231C4.00295 17.3859 4.0676 17.5419 4.18268 17.657C4.29776 17.7721 4.45384 17.8367 4.61659 17.8367H12.1993C12.3326 18.3058 12.6153 18.7186 13.0044 19.0125C13.3935 19.3064 13.8678 19.4654 14.3554 19.4654C14.843 19.4654 15.3174 19.3064 15.7065 19.0125C16.0956 18.7186 16.3782 18.3058 16.5115 17.8367H19.3854C19.5481 17.8367 19.7042 17.7721 19.8193 17.657C19.9344 17.5419 19.999 17.3859 19.999 17.2231C19.999 17.0604 19.9344 16.9043 19.8193 16.7892C19.7042 16.6741 19.5481 16.6095 19.3854 16.6095ZM14.3554 18.2373C14.1545 18.2375 13.9581 18.1781 13.791 18.0667C13.6239 17.9552 13.4937 17.7966 13.4167 17.6111C13.3397 17.4255 13.3195 17.2213 13.3587 17.0243C13.3978 16.8273 13.4945 16.6463 13.6366 16.5043C13.7786 16.3622 13.9596 16.2655 14.1566 16.2264C14.3536 16.1872 14.5579 16.2074 14.7434 16.2844C14.929 16.3613 15.0875 16.4916 15.199 16.6587C15.3105 16.8258 15.3699 17.0222 15.3697 17.2231C15.3694 17.492 15.2625 17.7498 15.0723 17.94C14.8822 18.1301 14.6243 18.2371 14.3554 18.2373Z" fill="currentColor"/>
</svg>
