<svg width="30" height="30" viewBox="0 0 30 30" fill="currentColor" xmlns="http://www.w3.org/2000/svg">
<path d="M11.9617 25.528V21.8587C11.9617 20.9221 12.7266 20.1628 13.6701 20.1628H17.1191C17.5722 20.1628 18.0068 20.3414 18.3271 20.6595C18.6475 20.9776 18.8275 21.4089 18.8275 21.8587V25.528C18.8246 25.9174 18.9785 26.2918 19.2548 26.5682C19.5312 26.8446 19.9072 27 20.2995 27H22.6526C23.7515 27.0028 24.8065 26.5714 25.5846 25.801C26.3627 25.0305 26.8 23.9844 26.8 22.8934V12.4402C26.8 11.5589 26.4065 10.723 25.7255 10.1576L17.7208 3.81104C16.3284 2.69827 14.3333 2.7342 12.9825 3.89637L5.16041 10.1576C4.44729 10.7063 4.02106 11.5448 4 12.4402V22.8827C4 25.1566 5.85686 27 8.14741 27H10.4467C11.2615 27 11.9236 26.3474 11.9295 25.5387L11.9617 25.528Z" fill="currentColor"/>
</svg>
