<svg width="30" height="30" viewBox="0 0 30 30" fill="currentColor" xmlns="http://www.w3.org/2000/svg">
<path d="M15 22.0476C11.0727 22.0476 7.90909 18.8367 7.90909 14.9728C7.90909 11.1088 11.0727 7.89796 15 7.89796C18.9273 7.89796 22.0909 11 22.0909 14.9728C22.0909 18.9456 18.9273 22.0476 15 22.0476ZM15 22.0476C11.0727 22.0476 7.90909 18.8367 7.90909 14.9728C7.90909 11.1088 11.0727 7.89796 15 7.89796C18.9273 7.89796 22.0909 11 22.0909 14.9728C22.0909 18.9456 18.9273 22.0476 15 22.0476ZM6 15.0272C6 14.9728 6 14.9728 6 15.0272C6 14.6463 6.05455 14.2653 6.05455 13.8844H3.87273C3.43636 13.8844 3 14.3197 3 14.7551V15.1361C3 15.6259 3.43636 16.0612 3.87273 16.0612H6.05455C6 15.7347 6 15.3537 6 15.0272ZM7.96364 9.42177C8.4 8.87755 8.89091 8.38776 9.43636 7.95238L8.67273 7.19048C8.4 6.80952 7.8 6.80952 7.41818 7.19048L7.2 7.40816C6.81818 7.73469 6.81818 8.33333 7.2 8.65986L7.96364 9.42177ZM22.0909 9.42177L22.8 8.60544C23.1818 8.33333 23.1818 7.73469 22.8 7.35374L22.5273 7.08163C22.2545 6.70068 21.6545 6.70068 21.2727 7.08163L20.5091 7.84354C21.0545 8.33333 21.6 8.82313 22.0909 9.42177ZM15 5.9932C15.3818 5.9932 15.7091 6.04762 16.0909 6.04762V3.87075C16.0909 3.43537 15.6545 3 15.2182 3H14.8364C14.3455 3 13.9091 3.43537 13.9091 3.87075V6.10204C14.2909 6.04762 14.6182 5.9932 15 5.9932ZM26.0727 13.8844H23.9455C24 14.2653 24 14.5918 24 14.9728C24 15.3537 24 15.6803 23.9455 16.0068H26.0727C26.5636 16.0068 27 15.5714 27 15.0816V14.7007C27 14.3197 26.5636 13.8844 26.0727 13.8844ZM7.96364 20.5782L7.25455 21.3401C6.87273 21.6122 6.87273 22.2109 7.25455 22.5918L7.52727 22.8639C7.8 23.2449 8.4 23.2449 8.78182 22.8639L9.54545 22.102C8.94546 21.6667 8.4 21.1769 7.96364 20.5782ZM22.1455 20.4694C21.7091 21.068 21.1636 21.6122 20.5636 22.0476L21.3273 22.8095C21.6 23.1905 22.2 23.1905 22.5818 22.8095L22.9091 22.483C23.2909 22.2109 23.2909 21.6122 22.9091 21.2313L22.1455 20.4694ZM15 23.9524C14.6727 23.9524 14.2909 23.9524 13.9636 23.898V26.0748C13.9636 26.5646 14.3455 27 14.8364 27H15.2182C15.6545 27 16.0909 26.5646 16.0909 26.0748V23.898C15.7091 23.9524 15.3818 23.9524 15 23.9524Z" fill="currentColor"/>
</svg>
