<svg width="50" height="50" viewBox="0 0 50 50" fill="none" xmlns="http://www.w3.org/2000/svg">
<path d="M46.3246 8.40912C46.3246 18.6681 46.3246 28.9167 46.3246 39.1756C46.304 39.2068 46.2731 39.2379 46.2628 39.269C46.026 39.6424 45.7583 39.9018 45.2538 39.8603C44.5021 39.7877 43.7504 39.7669 42.9988 39.7358C40.5378 39.6113 38.0666 39.4765 35.6057 39.352C31.8164 39.1549 28.0272 38.9474 24.238 38.7607C24.0527 38.7503 23.8364 38.823 23.6923 38.9267C22.1169 40.0366 20.5517 41.1569 18.9866 42.2772C18.8631 42.2772 18.7498 42.2772 18.6262 42.2772C18.5027 42.1216 18.4512 41.9453 18.5542 41.7585C18.6056 41.6548 18.6365 41.5303 18.688 41.4266C19.7795 39.4039 20.8812 37.3915 21.983 35.3687C22.3022 34.7878 22.7038 34.6219 23.3525 34.6737C24.2071 34.736 25.0823 34.819 25.9267 34.7463C31.7135 34.2484 35.9455 28.9478 35.235 23.1389C34.5245 17.3403 29.2422 13.2326 23.4863 14.1143C19.4912 14.7263 16.6801 17.0084 15.2901 20.8257C13.9 24.6533 14.6414 28.1906 17.2568 31.3129C17.8952 32.0805 18.6674 32.6925 19.5015 33.2319C19.9133 33.5016 20.0575 33.958 19.8619 34.3418C19.2646 35.4621 18.6777 36.5927 18.0702 37.7027C17.8643 38.0865 17.5245 38.3769 17.0714 38.3562C15.5269 38.3043 13.9824 38.2006 12.4379 38.1176C9.89456 37.9827 7.35125 37.8375 4.79764 37.7234C4.42696 37.7027 4.13865 37.5989 3.91212 37.3189C3.82974 37.2151 3.75767 37.101 3.67529 36.9869C3.67529 28.1906 3.67529 19.3838 3.67529 10.5875C3.71648 10.5356 3.75767 10.4837 3.78856 10.4215C3.9842 10.1518 4.17984 9.8821 4.55052 9.86135C6.12593 9.77837 7.69104 9.69538 9.26645 9.6124C11.7583 9.48792 14.2604 9.35307 16.7522 9.22859C20.006 9.05225 23.2598 8.87591 26.5239 8.70994C29.0157 8.57509 31.5178 8.45061 34.0097 8.32614C37.7577 8.12905 41.5057 7.93196 45.2538 7.7245C45.6553 7.70375 45.923 7.85935 46.1496 8.13942C46.2217 8.2224 46.2731 8.31576 46.3246 8.40912Z" fill="#175CD3"/>
<path d="M25.103 32.5158C26.6887 32.132 28.017 31.3021 29.0158 30.0159C30.7148 27.8168 31.3943 25.348 30.725 22.5887C30.5294 21.7693 30.1278 21.0432 29.5821 20.4104C27.8419 18.3462 24.9794 18.3876 23.2496 20.4726C21.2211 22.9311 21.53 27.0284 23.9189 28.9889C23.9498 29.02 23.9806 29.0615 24.0424 29.1238C23.3937 29.2275 22.8068 29.1341 22.2611 28.8644C21.0152 28.2628 20.315 27.2048 19.9649 25.9081C19.2029 23.0555 20.6239 18.8544 24.0836 17.3607C26.7299 16.2197 29.788 17.1325 31.5694 19.5805C35.1012 24.4455 32.3622 31.354 26.4622 32.4432C26.0194 32.5261 25.5664 32.5469 25.1236 32.5987C25.1133 32.5676 25.1133 32.5365 25.103 32.5158Z" fill="#175CD3"/>
<path d="M25.9681 19.6846C26.4932 19.5809 26.9668 19.6327 27.4302 19.8091C28.7894 20.3174 29.5822 21.365 29.9838 22.7135C30.5295 24.5703 30.2103 26.3649 29.366 28.066C28.4805 29.8502 27.1316 31.1468 25.1958 31.707C22.6216 32.4538 19.8929 31.375 18.3072 29.0515C15.0226 24.2176 17.6688 17.5996 23.363 16.4067C23.8572 16.303 24.3721 16.2822 24.8972 16.2822C24.8766 16.2926 24.8457 16.3133 24.8251 16.3237C22.1685 17.0498 20.4799 18.8236 19.5634 21.3754C18.9353 23.0973 18.7809 24.8608 19.409 26.6242C19.7282 27.537 20.2327 28.3357 20.9741 28.9581C22.7555 30.4726 25.237 30.1925 26.7712 28.3357C28.7894 25.8877 28.4805 21.78 26.0813 19.8194C26.0401 19.778 26.0195 19.7365 25.9681 19.6846Z" fill="#175CD3"/>
</svg>
