<svg width="50" height="50" viewBox="0 0 50 50" fill="none" xmlns="http://www.w3.org/2000/svg">
<path d="M46.3246 41.5909C46.3246 31.3319 46.3246 21.0833 46.3246 10.8244C46.304 10.7932 46.2731 10.7621 46.2628 10.731C46.026 10.3576 45.7583 10.0982 45.2538 10.1397C44.5021 10.2123 43.7504 10.2331 42.9988 10.2642C40.5378 10.3887 38.0666 10.5235 35.6057 10.648C31.8164 10.8451 28.0272 11.0526 24.238 11.2393C24.0527 11.2497 23.8364 11.177 23.6923 11.0733C22.1169 9.96339 20.5517 8.8431 18.9866 7.72281C18.8631 7.72281 18.7498 7.72281 18.6262 7.72281C18.5027 7.8784 18.4512 8.05474 18.5542 8.24146C18.6056 8.34519 18.6365 8.46967 18.688 8.5734C19.7795 10.5961 20.8812 12.6085 21.983 14.6313C22.3022 15.2122 22.7038 15.3781 23.3525 15.3263C24.2071 15.264 25.0823 15.181 25.9267 15.2537C31.7135 15.7516 35.9455 21.0522 35.235 26.8611C34.5245 32.6597 29.2422 36.7674 23.4863 35.8857C19.4912 35.2737 16.6801 32.9916 15.2901 29.1743C13.9 25.3467 14.6414 21.8094 17.2568 18.6871C17.8952 17.9195 18.6674 17.3075 19.5015 16.7681C19.9133 16.4984 20.0575 16.042 19.8619 15.6582C19.2646 14.5379 18.6777 13.4073 18.0702 12.2973C17.8643 11.9135 17.5245 11.6231 17.0714 11.6438C15.5269 11.6957 13.9824 11.7994 12.4379 11.8824C9.89456 12.0173 7.35125 12.1625 4.79764 12.2766C4.42696 12.2973 4.13865 12.4011 3.91212 12.6811C3.82974 12.7849 3.75767 12.899 3.67529 13.0131C3.67529 21.8094 3.67529 30.6162 3.67529 39.4125C3.71648 39.4644 3.75767 39.5163 3.78856 39.5785C3.9842 39.8482 4.17984 40.1179 4.55052 40.1386C6.12593 40.2216 7.69104 40.3046 9.26645 40.3876C11.7583 40.5121 14.2604 40.6469 16.7522 40.7714C20.006 40.9477 23.2598 41.1241 26.5239 41.2901C29.0157 41.4249 31.5178 41.5494 34.0097 41.6739C37.7577 41.871 41.5057 42.068 45.2538 42.2755C45.6553 42.2962 45.923 42.1407 46.1496 41.8606C46.2217 41.7776 46.2731 41.6842 46.3246 41.5909Z" fill="#175CD3"/>
<path d="M25.103 17.4842C26.6887 17.868 28.017 18.6979 29.0158 19.9841C30.7148 22.1832 31.3943 24.652 30.725 27.4113C30.5294 28.2307 30.1278 28.9568 29.5821 29.5896C27.8419 31.6538 24.9794 31.6124 23.2496 29.5274C21.2211 27.0689 21.53 22.9716 23.9189 21.0111C23.9498 20.98 23.9806 20.9385 24.0424 20.8762C23.3937 20.7725 22.8068 20.8659 22.2611 21.1356C21.0152 21.7372 20.315 22.7952 19.9649 24.0919C19.2029 26.9445 20.6239 31.1456 24.0836 32.6393C26.7299 33.7803 29.788 32.8675 31.5694 30.4195C35.1012 25.5545 32.3622 18.646 26.4622 17.5568C26.0194 17.4739 25.5664 17.4531 25.1236 17.4013C25.1133 17.4324 25.1133 17.4635 25.103 17.4842Z" fill="#175CD3"/>
<path d="M25.9681 30.3154C26.4932 30.4191 26.9668 30.3673 27.4302 30.1909C28.7894 29.6826 29.5822 28.635 29.9838 27.2865C30.5295 25.4297 30.2103 23.6351 29.366 21.934C28.4805 20.1498 27.1316 18.8532 25.1958 18.293C22.6216 17.5462 19.8929 18.625 18.3072 20.9485C15.0226 25.7824 17.6688 32.4004 23.363 33.5933C23.8572 33.697 24.3721 33.7178 24.8972 33.7178C24.8766 33.7074 24.8457 33.6867 24.8251 33.6763C22.1685 32.9502 20.4799 31.1764 19.5634 28.6246C18.9353 26.9027 18.7809 25.1392 19.409 23.3758C19.7282 22.463 20.2327 21.6643 20.9741 21.0419C22.7555 19.5274 25.237 19.8075 26.7712 21.6643C28.7894 24.1123 28.4805 28.22 26.0813 30.1806C26.0401 30.222 26.0195 30.2635 25.9681 30.3154Z" fill="#175CD3"/>
</svg>
