<svg width="60" height="61" viewBox="0 0 60 61" fill="none" xmlns="http://www.w3.org/2000/svg">
<g clip-path="url(#clip0_1419_13956)">
<path d="M48.1754 60.7578H11.8279C7.36646 60.7578 3.75 57.178 3.75 52.7638V8.79509C3.75 4.37965 7.36646 0.80047 11.8279 0.80047H37.8019C38.5013 0.67007 39.244 0.832908 39.7842 1.36813L55.5381 16.9616C55.8888 17.3074 56.0927 17.7408 56.1589 18.191C56.2205 18.3792 56.25 18.5809 56.25 18.7885V52.7638C56.252 57.1773 52.6388 60.7559 48.1793 60.7578H48.1754ZM40.0969 7.91667V16.7897H49.063L40.0969 7.91667ZM52.2153 20.7867H38.0792C37.5435 20.7865 37.0299 20.5759 36.6511 20.2011C36.2722 19.8263 36.0592 19.318 36.0589 18.7879V4.79745H11.8279C11.2975 4.79745 10.7724 4.90084 10.2824 5.10171C9.79238 5.30257 9.34717 5.59699 8.97215 5.96814C8.59713 6.3393 8.29965 6.77992 8.09669 7.26486C7.89373 7.74979 7.78927 8.26955 7.78927 8.79444V52.7638C7.78927 54.9696 9.59652 56.7589 11.8266 56.7589H48.1734C49.2444 56.7591 50.2715 56.3383 51.0291 55.5892C51.7867 54.84 52.2127 53.8237 52.2134 52.7638V20.7867H52.2153Z" fill="#D0D5DD"/>
</g>
<defs>
<clipPath id="clip0_1419_13956">
<rect width="60" height="60" fill="white" transform="translate(0 0.757812)"/>
</clipPath>
</defs>
</svg>
