<svg width="30" height="30" viewBox="0 0 30 30" fill="currentColor" xmlns="http://www.w3.org/2000/svg">
<path d="M14.9953 6.63506L22.3523 9.60459L14.9718 12.6069L7.6148 9.6374L14.9953 6.63506ZM14.9953 4.61475C14.9085 4.61475 14.8242 4.63115 14.7421 4.66396L4.16714 8.96709C3.57651 9.20615 3.57651 10.0757 4.1648 10.3147L14.7234 14.578C14.8031 14.6108 14.8875 14.6272 14.9742 14.6272C15.0609 14.6272 15.1453 14.6108 15.2273 14.578L25.8023 10.2749C26.3929 10.0358 26.3929 9.16631 25.8046 8.92725L15.2437 4.66396C15.164 4.63115 15.0796 4.61475 14.9953 4.61475Z" fill="currentColor"/>
<path d="M14.9648 19.7743C14.7633 19.7743 14.5594 19.7344 14.3672 19.6571L4.27265 15.5836C3.78047 15.3844 3.54375 14.8266 3.74297 14.3344C3.94218 13.8422 4.50234 13.6055 4.99218 13.8047L14.9672 17.8313L24.9586 13.7672C25.4484 13.5657 26.0086 13.8024 26.2102 14.2946C26.4094 14.7868 26.175 15.3469 25.6828 15.5461L15.5695 19.6571C15.375 19.7344 15.1711 19.7743 14.9648 19.7743Z" fill="currentColor"/>
<path d="M15.0165 25.3852C14.8126 25.3852 14.611 25.3453 14.4188 25.268L4.32197 21.1922C3.82978 20.993 3.59306 20.4352 3.79228 19.943C3.9915 19.4508 4.55166 19.2141 5.0415 19.4109L15.0165 23.4375L25.0079 19.3734C25.4978 19.1742 26.0579 19.4086 26.2595 19.9008C26.4587 20.393 26.222 20.9508 25.7321 21.1523L15.6188 25.2656C15.4267 25.3453 15.2204 25.3852 15.0165 25.3852Z" fill="currentColor"/>
</svg>
