<svg width="30" height="30" viewBox="0 0 30 30" fill="currentColor" xmlns="http://www.w3.org/2000/svg">
<g clip-path="url(#clip0_1002_4140)">
<path d="M22.5034 3C23.6644 3 24.5442 3.34014 25.1429 4.02041C25.7415 4.70068 26.0408 5.53061 26.0408 6.5102V20.9592C26.0408 21.4127 25.8503 21.8209 25.4694 22.1837L20.9252 26.5374C20.6893 26.737 20.4898 26.8639 20.3265 26.9184C20.1633 26.9728 19.9546 27 19.7007 27H7.48299C7.06576 27 6.64853 26.9138 6.23129 26.7415C5.81406 26.5692 5.44218 26.3243 5.11565 26.0068C4.78912 25.6893 4.52154 25.3084 4.31293 24.8639C4.10431 24.4195 4 23.9252 4 23.381V6.5102C4 5.43991 4.29478 4.5873 4.88435 3.95238C5.47392 3.31746 6.31293 3 7.40136 3H22.5034ZM16.7891 20.0612C17.0249 20.0612 17.2245 19.9796 17.3878 19.8163C17.551 19.6531 17.6327 19.4535 17.6327 19.2177C17.6327 18.9637 17.551 18.7596 17.3878 18.6054C17.2245 18.4512 17.0249 18.3742 16.7891 18.3742H8.27211C8.03628 18.3742 7.83674 18.4512 7.67347 18.6054C7.5102 18.7596 7.42857 18.9637 7.42857 19.2177C7.42857 19.4535 7.5102 19.6531 7.67347 19.8163C7.83674 19.9796 8.03628 20.0612 8.27211 20.0612H16.7891ZM20.1905 14.9456C20.4263 14.9456 20.6259 14.8639 20.7891 14.7007C20.9524 14.5374 21.034 14.3379 21.034 14.102C21.034 13.8662 20.9524 13.6667 20.7891 13.5034C20.6259 13.3401 20.4263 13.2585 20.1905 13.2585H8.27211C8.03628 13.2585 7.83674 13.3401 7.67347 13.5034C7.5102 13.6667 7.42857 13.8662 7.42857 14.102C7.42857 14.3379 7.5102 14.5374 7.67347 14.7007C7.83674 14.8639 8.03628 14.9456 8.27211 14.9456H20.1905ZM21.8776 9.85714C22.1134 9.85714 22.3129 9.77551 22.4762 9.61225C22.6395 9.44898 22.7211 9.24036 22.7211 8.9864C22.7211 8.75057 22.6395 8.55102 22.4762 8.38776C22.3129 8.22449 22.1134 8.14286 21.8776 8.14286H8.27211C8.03628 8.14286 7.83674 8.22449 7.67347 8.38776C7.5102 8.55102 7.42857 8.75057 7.42857 8.9864C7.42857 9.24036 7.5102 9.44898 7.67347 9.61225C7.83674 9.77551 8.03628 9.85714 8.27211 9.85714H21.8776Z" fill="currentColor"/>
</g>
<defs>
<clipPath id="clip0_1002_4140">
<rect width="30" height="30" fill="white"/>
</clipPath>
</defs>
</svg>
