<svg width="30" height="30" viewBox="0 0 30 30" fill="none" xmlns="http://www.w3.org/2000/svg">
<g clip-path="url(#clip0_1322_12054)">
<path d="M13.1647 15.5244H6.26089C6.09694 15.5244 5.9346 15.5567 5.78313 15.6194C5.63166 15.6822 5.49404 15.7741 5.37811 15.8901C5.14398 16.1242 5.01245 16.4417 5.01245 16.7729V23.7267C5.01245 23.8906 5.04474 24.0529 5.10748 24.2044C5.17022 24.3559 5.26218 24.4935 5.37811 24.6094C5.49404 24.7254 5.63166 24.8173 5.78313 24.8801C5.9346 24.9428 6.09694 24.9751 6.26089 24.9751H13.1648C13.3287 24.9751 13.491 24.9428 13.6425 24.8801C13.794 24.8173 13.9316 24.7254 14.0475 24.6094C14.1635 24.4935 14.2554 24.3559 14.3182 24.2044C14.3809 24.0529 14.4132 23.8906 14.4132 23.7267V16.7729C14.4132 16.4418 14.2817 16.1242 14.0475 15.8901C13.8134 15.656 13.4959 15.5244 13.1648 15.5244L13.1647 15.5244ZM13.1647 23.7267H6.26089V16.7729H13.1648L13.1647 23.7267Z" fill="#1849A9"/>
<path d="M7.84015 18.377H11.5855V22.1223H7.84015V18.377ZM13.1648 5H6.26085C5.92975 5.00001 5.61222 5.13155 5.3781 5.36567C5.14398 5.5998 5.01245 5.91734 5.01245 6.24844V13.0275C5.01245 13.3586 5.14398 13.6761 5.37811 13.9102C5.49404 14.0262 5.63166 14.1181 5.78313 14.1809C5.9346 14.2436 6.09694 14.2759 6.26089 14.2759H13.1648C13.4959 14.2759 13.8134 14.1444 14.0475 13.9102C14.2817 13.6761 14.4132 13.3586 14.4132 13.0275V6.24844C14.4132 5.91733 14.2817 5.59979 14.0475 5.36566C13.8134 5.13153 13.4959 5 13.1648 5ZM13.1648 13.0275H6.26085V6.24844H13.1647L13.1648 13.0275Z" fill="#1849A9"/>
<path d="M7.84009 7.76529H11.5854V11.5106H7.84009V7.76529ZM24.3632 15.5056H16.2795C16.1849 15.5087 16.0923 15.5333 16.0085 15.5775C15.9248 15.6217 15.8523 15.6843 15.7963 15.7607C15.7404 15.8371 15.7026 15.9252 15.6857 16.0183C15.6689 16.1115 15.6734 16.2072 15.699 16.2984V24.3508C15.699 24.5164 15.7648 24.6751 15.8818 24.7922C15.9989 24.9093 16.1577 24.975 16.3232 24.975C16.4888 24.975 16.6476 24.9093 16.7646 24.7922C16.8817 24.6751 16.9475 24.5164 16.9475 24.3508V16.7541H24.3632C24.5287 16.7541 24.6875 16.6883 24.8046 16.5712C24.9216 16.4542 24.9874 16.2954 24.9874 16.1298C24.9874 15.9643 24.9216 15.8055 24.8046 15.6885C24.6875 15.5714 24.5287 15.5056 24.3632 15.5056ZM23.739 5H16.91C16.5789 5 16.2614 5.13153 16.0272 5.36566C15.7931 5.59979 15.6616 5.91733 15.6616 6.24844V13.0275C15.6616 13.3586 15.7931 13.6761 16.0272 13.9102C16.2614 14.1444 16.5789 14.2759 16.91 14.2759H23.739C24.0701 14.2759 24.3876 14.1444 24.6217 13.9102C24.8559 13.6761 24.9874 13.3586 24.9874 13.0275V6.24844C24.9874 5.91733 24.8559 5.59979 24.6217 5.36566C24.3876 5.13153 24.0701 5 23.739 5ZM23.739 13.0275H16.91V6.24844H23.739V13.0275Z" fill="#1849A9"/>
<path d="M18.4519 7.76562H22.1972V11.5109H18.4519V7.76562ZM23.352 18.059H24.9625V19.6695H23.352V18.059ZM19.0512 18.059H17.4407V19.6695H19.0512V22.853H20.6617V19.6633H19.0511V18.059H19.0512ZM17.4407 23.3836H19.0512V24.9941H17.4407V23.3836ZM20.9862 18.858H22.5967V20.4685H20.9862V18.858ZM19.7003 17.0041H21.3108V18.6146H19.7004L19.7003 17.0041ZM20.93 23.2837H22.5405V24.8942H20.93V23.2837ZM23.352 22.1913H24.9625V25.0003H23.352V22.1913Z" fill="#1849A9"/>
</g>
<defs>
<clipPath id="clip0_1322_12054">
<rect width="20" height="20" fill="white" transform="translate(5 5)"/>
</clipPath>
</defs>
</svg>
