<svg width="16" height="16" viewBox="0 0 16 16" fill="none" xmlns="http://www.w3.org/2000/svg">
<g clip-path="url(#clip0_3503_15468)">
<path d="M8.00016 14.6663C9.8411 14.6663 11.5078 13.9201 12.7142 12.7137C13.9206 11.5073 14.6668 9.84061 14.6668 7.99967C14.6668 6.15874 13.9206 4.49207 12.7142 3.28563C11.5078 2.0792 9.8411 1.33301 8.00016 1.33301C6.15923 1.33301 4.49256 2.0792 3.28612 3.28563C2.07969 4.49207 1.3335 6.15874 1.3335 7.99967C1.3335 9.84061 2.07969 11.5073 3.28612 12.7137C4.49256 13.9201 6.15923 14.6663 8.00016 14.6663Z" stroke="#667085" stroke-linejoin="round"/>
<path d="M8 9.54134V8.20801C9.10457 8.20801 10 7.31257 10 6.20801C10 5.10344 9.10457 4.20801 8 4.20801C6.89543 4.20801 6 5.10344 6 6.20801" stroke="#667085" stroke-linecap="round" stroke-linejoin="round"/>
<path fill-rule="evenodd" clip-rule="evenodd" d="M7.99984 12.5417C8.46007 12.5417 8.83317 12.1686 8.83317 11.7083C8.83317 11.2481 8.46007 10.875 7.99984 10.875C7.5396 10.875 7.1665 11.2481 7.1665 11.7083C7.1665 12.1686 7.5396 12.5417 7.99984 12.5417Z" fill="#667085"/>
</g>
<defs>
<clipPath id="clip0_3503_15468">
<rect width="16" height="16" fill="white"/>
</clipPath>
</defs>
</svg>
