<svg width="24" height="24" viewBox="0 0 24 24" fill="none" xmlns="http://www.w3.org/2000/svg">
<g clip-path="url(#clip0_1312_15041)">
<path d="M11.9999 18.6666C13.8409 18.6666 15.5075 17.9204 16.714 16.714C17.9204 15.5075 18.6666 13.8409 18.6666 11.9999C18.6666 10.159 17.9204 8.49232 16.714 7.28587C15.5075 6.07945 13.8409 5.33325 11.9999 5.33325C10.159 5.33325 8.49232 6.07945 7.28587 7.28587C6.07945 8.49232 5.33325 10.159 5.33325 11.9999C5.33325 13.8409 6.07945 15.5075 7.28587 16.714C8.49232 17.9204 10.159 18.6666 11.9999 18.6666Z" stroke="#667085" stroke-linejoin="round"/>
<path d="M12 13.5416V12.2083C13.1046 12.2083 14 11.3128 14 10.2083C14 9.10369 13.1046 8.20825 12 8.20825C10.8954 8.20825 10 9.10369 10 10.2083" stroke="#667085" stroke-linecap="round" stroke-linejoin="round"/>
<path fill-rule="evenodd" clip-rule="evenodd" d="M12.0001 16.5417C12.4603 16.5417 12.8334 16.1686 12.8334 15.7083C12.8334 15.2481 12.4603 14.875 12.0001 14.875C11.5398 14.875 11.1667 15.2481 11.1667 15.7083C11.1667 16.1686 11.5398 16.5417 12.0001 16.5417Z" fill="#667085"/>
</g>
<defs>
<clipPath id="clip0_1312_15041">
<rect width="16" height="16" fill="white" transform="translate(4 4)"/>
</clipPath>
</defs>
</svg>
