<svg width="30" height="30" viewBox="0 0 30 30" fill="none" xmlns="http://www.w3.org/2000/svg">
<g clip-path="url(#clip0_1028_7945)">
<circle cx="15" cy="15" r="15" fill="#1849A9"/>
<path d="M20.8064 9.43625C20.8064 9.43625 22.1015 8.93125 21.9936 10.1577C21.9576 10.6627 21.6339 12.4302 21.382 14.342L20.5186 20.0052C20.5186 20.0052 20.4467 20.8349 19.7991 20.9792C19.1516 21.1234 18.1803 20.4742 18.0004 20.3299C17.8565 20.2217 15.3023 18.5984 14.4029 17.8049C14.151 17.5884 13.8632 17.1556 14.4388 16.6506L18.2162 13.0434C18.6479 12.6106 19.0796 11.6006 17.2809 12.827L12.2444 16.2538C12.2444 16.2538 11.6688 16.6145 10.5895 16.2899L8.25114 15.5684C8.25114 15.5684 7.38774 15.0274 8.86272 14.4863C12.4602 12.7909 16.8852 11.0595 20.8064 9.43625Z" fill="white"/>
</g>
<defs>
<clipPath id="clip0_1028_7945">
<rect width="30" height="30" fill="white"/>
</clipPath>
</defs>
</svg>
