<svg width="30" height="30" viewBox="0 0 30 30" fill="currentColor" xmlns="http://www.w3.org/2000/svg">
<path d="M23.7701 20.383C23.0859 20.383 22.4485 20.0456 22.0596 19.4832L21.0427 18.0071C19.8477 20.1534 17.5702 21.5405 15.0021 21.5405C11.4172 21.5405 8.46485 18.8037 8.11339 15.3125H8.76946C9.0272 15.3125 9.26151 15.1719 9.38335 14.9423C9.50519 14.7126 9.48645 14.4408 9.34118 14.23L8.33364 12.7632L6.80593 10.5372C6.67471 10.3498 6.46383 10.2373 6.23421 10.2373C6.20609 10.2373 6.17797 10.2373 6.14986 10.242C6.12174 10.2467 6.09362 10.2514 6.0655 10.256C5.9999 10.2748 5.93429 10.2982 5.87337 10.3357C5.78902 10.3873 5.71872 10.4529 5.66249 10.5372L3.12256 14.23C2.97728 14.4408 2.95854 14.7173 3.08038 14.9423C3.20222 15.1719 3.43653 15.3125 3.69428 15.3125H4.41127C4.57529 17.8852 5.6578 20.2846 7.49949 22.1263C9.50519 24.132 12.167 25.2332 15.0021 25.2332C17.8373 25.2332 20.5038 24.1273 22.5048 22.1263C23.039 21.592 23.5076 21.0109 23.9153 20.383C23.8685 20.3783 23.8169 20.383 23.7701 20.383Z" fill="currentColor"/>
<path d="M15.138 18.2134C15.8784 18.0353 16.497 17.651 16.9656 17.0512C17.7623 16.0343 18.0762 14.8908 17.7623 13.6115C17.6685 13.2319 17.4811 12.8992 17.2327 12.5993C16.4173 11.6433 15.0817 11.662 14.2757 12.6274C13.3291 13.7662 13.4744 15.6641 14.585 16.5732C14.5991 16.5873 14.6131 16.606 14.6412 16.6341C14.3366 16.6857 14.0648 16.6388 13.8071 16.517C13.226 16.2358 12.898 15.7484 12.7339 15.1439C12.3825 13.8224 13.0432 11.8776 14.6553 11.184C15.8878 10.6545 17.3171 11.0763 18.1465 12.2103C19.7961 14.4644 18.5167 17.6651 15.7612 18.1712C15.555 18.2087 15.3442 18.2181 15.138 18.2415C15.1427 18.2415 15.138 18.2274 15.138 18.2134Z" fill="currentColor"/>
<path d="M15.5411 12.2713C15.7847 12.2244 16.0097 12.2478 16.2252 12.3275C16.8626 12.5618 17.2328 13.0492 17.4155 13.6725C17.6686 14.5347 17.5186 15.3642 17.1297 16.1515C16.7173 16.9809 16.0847 17.5761 15.1802 17.8385C13.9805 18.1853 12.7059 17.6839 11.9655 16.606C10.4331 14.366 11.6656 11.3012 14.3226 10.7482C14.5523 10.7014 14.7959 10.6873 15.0396 10.692C15.0303 10.6967 15.0162 10.7061 15.0068 10.7108C13.765 11.0482 12.9824 11.8683 12.5512 13.0492C12.2607 13.8458 12.1857 14.6612 12.4763 15.4813C12.6262 15.9031 12.8605 16.2733 13.2073 16.5639C14.0368 17.2668 15.199 17.1356 15.916 16.2733C16.8579 15.1392 16.7126 13.2366 15.5926 12.3275C15.5739 12.3134 15.5645 12.2994 15.5411 12.2713Z" fill="currentColor"/>
<path d="M26.9194 14.2909C26.7975 14.0613 26.5632 13.9207 26.3055 13.9207H25.5932C25.4292 11.348 24.3466 8.94865 22.505 7.10697C20.4993 5.10126 17.8375 4 15.0023 4C12.1671 4 9.50068 5.10595 7.49967 7.11165C6.96544 7.64588 6.49681 8.22697 6.08911 8.85493C6.13597 8.85024 6.18752 8.85024 6.23438 8.85024C6.91857 8.85024 7.5559 9.18765 7.94486 9.75L8.96177 11.2262C10.1568 9.07987 12.4343 7.69275 15.0023 7.69275C18.5873 7.69275 21.5396 10.4295 21.8911 13.9207H21.235C20.9772 13.9207 20.7429 14.0613 20.6211 14.2909C20.4993 14.5206 20.518 14.7924 20.6633 15.0033L21.6708 16.47L23.1985 18.696C23.2313 18.7429 23.2688 18.785 23.311 18.8225C23.4375 18.935 23.5968 18.9959 23.7702 18.9959C23.9999 18.9959 24.2107 18.8834 24.342 18.696L25.2605 17.3651L26.8819 15.0079C27.0225 14.7924 27.0412 14.5206 26.9194 14.2909Z" fill="currentColor"/>
</svg>
