<svg width="30" height="30" viewBox="0 0 30 30" fill="none" xmlns="http://www.w3.org/2000/svg">
<g clip-path="url(#clip0_1028_7944)">
<circle cx="15" cy="15" r="15" fill="#1849A9"/>
<path d="M8.66675 18.9207C9.3097 19.2761 13.9639 21.959 17.2734 19.8913C20.5828 17.8235 20.4003 14.261 20.4003 12.6286C20.7001 12.0005 21.3334 11.6812 21.3334 9.98118C20.7113 10.5559 20.093 10.7514 19.4784 10.5678C18.8763 9.64977 18.0479 9.24374 16.9932 9.3497C15.4112 9.50863 14.8324 11.0608 15.0027 13.0688C12.5634 14.3024 10.6506 12.1746 9.66481 10.5678C9.33544 11.8332 9.01785 13.3525 9.66481 15.0331C10.0961 16.1535 11.1329 17.1007 12.7752 17.8748C11.1108 18.7769 9.74135 19.1255 8.66675 18.9207Z" fill="white" stroke="white" stroke-width="2"/>
</g>
<defs>
<clipPath id="clip0_1028_7944">
<rect width="30" height="30" fill="white"/>
</clipPath>
</defs>
</svg>
