<svg width="24" height="24" viewBox="0 0 24 24" fill="none" xmlns="http://www.w3.org/2000/svg">
<g clip-path="url(#clip0_1778_27208)">
<circle cx="12" cy="12" r="12" fill="currentColor"/>
<g clip-path="url(#clip1_1778_27208)">
<path d="M11.223 16.6855C11.2229 16.7797 11.1949 16.8717 11.1426 16.95C11.0902 17.0283 11.0158 17.0893 10.9288 17.1253C10.8418 17.1613 10.746 17.1707 10.6536 17.1524C10.5613 17.134 10.4764 17.0887 10.4098 17.0221C10.3432 16.9556 10.2977 16.8707 10.2793 16.7784C10.2608 16.686 10.2701 16.5903 10.3061 16.5032C10.342 16.4162 10.4029 16.3417 10.4811 16.2893C10.5594 16.2368 10.6514 16.2087 10.7455 16.2085C11.0075 16.2085 11.221 16.424 11.221 16.686M14.182 16.6855C14.1819 16.7796 14.154 16.8716 14.1017 16.9498C14.0494 17.0281 13.9751 17.0891 13.8881 17.1251C13.8012 17.1612 13.7055 17.1707 13.6132 17.1525C13.5209 17.1342 13.436 17.089 13.3693 17.0226C13.3026 16.9562 13.2571 16.8716 13.2385 16.7793C13.2198 16.687 13.229 16.5913 13.2646 16.5043C13.3003 16.4172 13.361 16.3426 13.4391 16.29C13.5171 16.2373 13.6089 16.209 13.703 16.2085C13.966 16.2085 14.18 16.424 14.18 16.686M16.452 12.1065L16.374 12.0045C16.351 11.9745 16.326 11.9465 16.3025 11.917C16.28 11.8865 16.2555 11.8605 16.232 11.8325C16.18 11.7725 16.1275 11.713 16.0725 11.653L16.0345 11.613L15.989 11.5635L15.9215 11.498C15.914 11.489 15.9055 11.481 15.8965 11.4715C15.3361 10.9155 14.6613 10.4883 13.919 10.2195L13.804 10.1805L13.8215 10.139C13.923 9.87796 13.9701 9.59893 13.9597 9.31905C13.9494 9.03917 13.882 8.76436 13.7615 8.5115C13.6427 8.25792 13.4732 8.03131 13.2636 7.84559C13.054 7.65987 12.8086 7.51895 12.5425 7.4315C12.2145 7.3235 11.9275 7.272 11.687 7.279C11.6705 7.2265 11.637 6.9905 11.935 6.355L11.3315 6L11.188 6.1995C11.023 6.427 10.864 6.647 10.7155 6.8635C10.5527 6.69083 10.33 6.58706 10.093 6.5735L9.39504 6.5305H9.38904C9.37254 6.529 9.35404 6.529 9.33704 6.529C8.84204 6.529 8.43204 6.9145 8.40204 7.4065L8.35804 8.1075V8.109C8.34395 8.3564 8.42832 8.59932 8.59273 8.78471C8.75714 8.97011 8.98824 9.08292 9.23554 9.0985L9.73654 9.129C9.70404 9.549 9.77304 9.939 9.93904 10.282C9.25305 10.5712 8.63109 10.9933 8.10904 11.524C6.45654 13.1955 6.45654 15.0255 6.45654 16.497V17.3845L7.10904 16.691C7.24204 17.156 7.43504 17.5945 7.68154 17.9985H8.53004C8.10543 17.4305 7.81794 16.772 7.69004 16.0745L8.64654 15.0595L8.15404 16.605L9.02404 15.971C10.5615 14.854 12.396 14.596 14.479 15.2065C15.3815 15.4725 16.259 15.226 16.7155 14.578L16.7675 14.4955C16.813 14.7445 16.838 14.9945 16.838 15.2435C16.838 16.025 16.7105 17.087 16.148 17.9995H16.9535C17.3415 17.218 17.544 16.2835 17.544 15.2435C17.5435 14.144 17.151 13.033 16.452 12.1065ZM10.447 9.0955C10.5085 8.5945 10.736 8.121 11.062 7.6105C11.1211 7.72841 11.2132 7.82659 11.3271 7.89308C11.441 7.95958 11.5718 7.99151 11.7035 7.985C11.812 7.981 12.006 7.9975 12.32 8.101C12.677 8.219 12.963 8.473 13.124 8.8135C13.285 9.154 13.2985 9.5345 13.1635 9.888C13.077 10.1105 12.9365 10.298 12.7605 10.4425L12.5565 10.1915L12.5555 10.19C12.4322 10.0404 12.2548 9.94573 12.0619 9.92653C11.869 9.90733 11.6764 9.96519 11.526 10.0875C11.359 10.2225 11.269 10.4175 11.259 10.6165C10.659 10.346 10.359 9.795 10.445 9.096L10.447 9.0955ZM12.599 11.6505L12.3395 11.863C12.3279 11.8726 12.3145 11.8799 12.3001 11.8843C12.2856 11.8887 12.2705 11.8903 12.2554 11.8888C12.2404 11.8873 12.2258 11.8828 12.2126 11.8756C12.1993 11.8685 12.1875 11.8587 12.178 11.847L12.1225 11.7795C12.1027 11.7551 12.0934 11.7238 12.0966 11.6925C12.0998 11.6612 12.1152 11.6324 12.1395 11.6125L12.3945 11.4025L11.867 10.753C11.854 10.7373 11.8442 10.7192 11.8382 10.6997C11.8323 10.6802 11.8302 10.6597 11.8323 10.6394C11.8343 10.6191 11.8404 10.5994 11.8502 10.5815C11.8599 10.5636 11.8731 10.5478 11.889 10.535C11.9045 10.5218 11.9224 10.5118 11.9418 10.5056C11.9612 10.4995 11.9816 10.4973 12.0019 10.4992C12.0221 10.5011 12.0418 10.5071 12.0597 10.5168C12.0776 10.5264 12.0934 10.5396 12.106 10.5555L13.5875 12.378C13.6045 12.3983 13.6159 12.4226 13.6207 12.4485C13.6256 12.4745 13.6237 12.5012 13.6153 12.5262C13.6069 12.5513 13.5922 12.5737 13.5726 12.5914C13.5531 12.6092 13.5293 12.6216 13.5035 12.6275C13.4754 12.6338 13.4461 12.6324 13.4188 12.6232C13.3914 12.614 13.3671 12.5975 13.3485 12.5755L13.201 12.393L12.6785 12.82C12.6568 12.8378 12.6296 12.8475 12.6015 12.8475C12.5837 12.8475 12.566 12.8435 12.5499 12.8357C12.5338 12.8279 12.5196 12.8165 12.5085 12.8025L12.27 12.513C12.2502 12.4883 12.241 12.4569 12.2442 12.4254C12.2475 12.3939 12.2631 12.365 12.2875 12.345L12.813 11.9165L12.6 11.65L12.599 11.6505ZM9.87654 8.433L9.27854 8.3955C9.21738 8.39189 9.16014 8.36418 9.11937 8.31844C9.0786 8.27271 9.05763 8.21267 9.06104 8.1515L9.10604 7.451C9.10936 7.3921 9.13509 7.33671 9.17795 7.29617C9.22081 7.25564 9.27755 7.23303 9.33654 7.233H9.34854L10.049 7.2785C10.0793 7.28015 10.109 7.2878 10.1363 7.30099C10.1636 7.31418 10.1881 7.33265 10.2082 7.35534C10.2283 7.37803 10.2438 7.40449 10.2536 7.43318C10.2634 7.46187 10.2675 7.49223 10.2655 7.5225L10.262 7.573C10.1043 7.84578 9.9748 8.13394 9.87554 8.433H9.87654ZM16.1385 14.1735C15.856 14.576 15.295 14.714 14.6765 14.5325C12.7335 13.962 10.9785 14.081 9.44254 14.883L10.2605 12.3215L7.61504 15.126C7.66454 13.245 8.84154 11.643 10.494 10.9705C10.7295 11.157 11.011 11.3005 11.3305 11.391C11.4105 11.413 11.4915 11.428 11.5705 11.442C11.5241 11.558 11.5094 11.6843 11.5278 11.808C11.5463 11.9316 11.5973 12.0481 11.6755 12.1455L11.713 12.1905C11.627 12.4155 11.6605 12.678 11.8235 12.8775L12.061 13.1685C12.1262 13.2487 12.2085 13.3133 12.3018 13.3577C12.3952 13.402 12.4972 13.425 12.6005 13.425C12.761 13.425 12.918 13.3695 13.0435 13.268L13.186 13.152C13.273 13.189 13.3695 13.2085 13.469 13.2085C13.638 13.2099 13.8021 13.1522 13.933 13.0455C14.2445 12.7905 14.293 12.328 14.0375 12.0155L13.2025 10.9875C13.275 10.929 13.343 10.8655 13.4065 10.797C13.474 10.8155 13.542 10.836 13.6065 10.857C13.7395 10.9055 13.873 10.956 14.004 11.0145C14.5183 11.2463 14.9874 11.5675 15.3895 11.963C15.404 11.978 15.419 11.9905 15.432 12.0045L15.517 12.092C15.5772 12.1548 15.6356 12.2194 15.692 12.2855L15.755 12.3605C15.7775 12.387 15.798 12.4125 15.82 12.4405L15.877 12.5155C15.897 12.541 15.9165 12.5665 15.9355 12.5925C16.3545 13.167 16.429 13.757 16.1375 14.171V14.1735H16.1385ZM9.85954 8.0575L9.44204 8.032L9.46854 7.6145L9.88554 7.64L9.85954 8.0575Z" fill="white"/>
</g>
</g>
<defs>
<clipPath id="clip0_1778_27208">
<rect width="24" height="24" fill="white"/>
</clipPath>
<clipPath id="clip1_1778_27208">
<rect width="12" height="12" fill="white" transform="translate(6 6)"/>
</clipPath>
</defs>
</svg>
