<svg width="30" height="30" viewBox="0 0 30 30" fill="currentColor" xmlns="http://www.w3.org/2000/svg">
<path d="M14.8643 14.5616C16.4537 14.5616 17.8274 13.9896 18.9526 12.8691C20.0778 11.7439 20.6451 10.3702 20.6451 8.78082C20.6451 7.19144 20.0778 5.81774 18.9573 4.69252C17.8321 3.5673 16.4584 3 14.869 3C13.2796 3 11.9059 3.57199 10.7807 4.69252C9.65548 5.81305 9.0835 7.19144 9.0835 8.78082C9.0835 10.3702 9.65548 11.7439 10.776 12.8691C11.9012 13.9943 13.2796 14.5616 14.8643 14.5616Z" fill="currentColor"/>
<path d="M24.982 21.4583C24.9492 20.9895 24.8836 20.4784 24.7898 19.9393C24.6913 19.3954 24.5648 18.8844 24.4147 18.4155C24.26 17.9326 24.049 17.4497 23.7865 16.995C23.5146 16.5167 23.1957 16.1042 22.8394 15.7619C22.4643 15.4056 22.0096 15.1196 21.4798 14.9086C20.9547 14.7023 20.3686 14.5945 19.7451 14.5945C19.5013 14.5945 19.2622 14.6929 18.8074 14.993C18.5261 15.1758 18.1979 15.3868 17.8275 15.6259C17.5134 15.8275 17.0867 16.0151 16.5616 16.1839C16.0506 16.3479 15.5255 16.4323 15.0145 16.4323C14.5034 16.4323 13.9783 16.3479 13.4673 16.1839C12.9422 16.0151 12.5155 15.8275 12.2014 15.6259C11.8357 15.3915 11.5075 15.1805 11.2215 14.993C10.7621 14.6929 10.5276 14.5945 10.2838 14.5945C9.66029 14.5945 9.07892 14.7023 8.54913 14.9086C8.01934 15.1196 7.56456 15.4056 7.18949 15.7619C6.83317 16.1042 6.51436 16.5167 6.24243 16.995C5.97988 17.4544 5.7689 17.9326 5.61418 18.4155C5.46415 18.8844 5.33757 19.3954 5.23911 19.9393C5.14065 20.4784 5.07501 20.9895 5.04688 21.4583C5.01407 21.9178 5 22.396 5 22.8742C5 24.126 5.39852 25.1434 6.18617 25.8889C6.95976 26.625 7.98652 27 9.23833 27H20.7953C22.0424 27 23.0692 26.625 23.8474 25.8889C24.6351 25.1434 25.0336 24.126 25.0336 22.8742C25.0289 22.3913 25.0102 21.9131 24.982 21.4583Z" fill="currentColor"/>
<path d="M17.1102 20.1408C17.2367 20.2674 17.2367 20.4737 17.1102 20.6003L14.93 22.7804C14.8035 22.907 14.5972 22.907 14.4706 22.7804L13.4298 21.7395C13.3032 21.613 13.3032 21.4067 13.4298 21.2801C13.5563 21.1535 13.7626 21.1535 13.8892 21.2801L14.6956 22.0865L16.646 20.1361C16.7726 20.0095 16.9836 20.0095 17.1102 20.1408ZM19.4262 21.4582C19.4262 23.7602 17.5649 25.6216 15.2629 25.6216C12.9609 25.6216 11.0996 23.7602 11.0996 21.4582C11.0996 19.1562 12.9609 17.2949 15.2629 17.2949C17.5649 17.2949 19.4262 19.1609 19.4262 21.4582ZM18.7745 21.4582C18.7745 19.5172 17.2039 17.9466 15.2629 17.9466C13.3219 17.9466 11.7513 19.5172 11.7513 21.4582C11.7513 23.3992 13.3219 24.9699 15.2629 24.9699C17.2039 24.9699 18.7745 23.3992 18.7745 21.4582Z" fill="white"/>
</svg>
