<svg width="24" height="24" viewBox="0 0 24 24" fill="none" xmlns="http://www.w3.org/2000/svg">
<g clip-path="url(#clip0_1029_7890)">
<circle cx="12" cy="12" r="12" fill="currentColor"/>
<path d="M8.73685 10.4942H6.7521C6.61221 10.9839 6.5415 11.4908 6.54203 12.0001C6.54203 12.5226 6.61506 13.0279 6.75285 13.506H8.7376C8.65478 13.0241 8.61262 12.5219 8.61262 12.0001C8.61262 11.4783 8.65478 10.9761 8.7376 10.4942H8.73685ZM9.50259 10.4942C9.40905 10.9907 9.36292 11.4949 9.3648 12.0001C9.3648 12.5257 9.40998 13.0279 9.50259 13.506H11.6236V10.4942H9.50259ZM10.6057 17.279C9.80259 16.4249 9.21913 15.3885 8.90551 14.2589H7.02918C7.36481 14.9955 7.8597 15.6485 8.47815 16.1707C9.09661 16.693 9.82324 17.0715 10.6057 17.279ZM11.6236 17.2263V14.2589H9.69083C10.0447 15.3929 10.6885 16.38 11.6236 17.227V17.2263ZM10.6057 6.72198C9.82331 6.9294 9.09673 7.3078 8.47828 7.82991C7.85982 8.35201 7.3649 9.00482 7.02918 9.74127H8.90551C9.21891 8.61177 9.80211 7.57535 10.6049 6.72123L10.6057 6.72198ZM11.6236 6.77469C10.6885 7.61949 10.0455 8.60659 9.69083 9.74127H11.6236V6.77318V6.77469ZM15.2633 10.4942C15.3462 10.9761 15.3883 11.4783 15.3883 12.0001C15.3883 12.5219 15.3462 13.0241 15.2633 13.506H17.2489C17.3859 13.0279 17.4589 12.5226 17.4589 12.0001C17.4589 11.4776 17.3859 10.9723 17.2481 10.4942H15.2633ZM14.4976 10.4942H12.3766V13.506H14.4976C14.5895 13.0279 14.6354 12.5257 14.6354 12.0001C14.6354 11.4745 14.5902 10.9723 14.4976 10.4942ZM13.3945 17.279C14.177 17.0715 14.9036 16.693 15.522 16.1707C16.1405 15.6485 16.6354 14.9955 16.971 14.2589H15.0947C14.7813 15.3884 14.1981 16.4248 13.3953 17.279H13.3945ZM12.3766 17.2263C13.3117 16.38 13.9547 15.3929 14.3094 14.2589H12.3766V17.227V17.2263ZM13.3945 6.72198C14.1975 7.57581 14.781 8.61197 15.0947 9.74127H16.9718C16.6361 9.00468 16.1413 8.35172 15.5228 7.82948C14.9043 7.30724 14.1777 6.92873 13.3953 6.72123L13.3945 6.72198ZM12.3766 6.77469V9.74127H14.3094C13.9555 8.60734 13.3117 7.62024 12.3766 6.77318V6.77469ZM12.0001 18.4001C10.3027 18.4001 8.67485 17.7258 7.47461 16.5256C6.27438 15.3253 5.6001 13.6975 5.6001 12.0001C5.6001 10.3027 6.27438 8.67485 7.47461 7.47461C8.67485 6.27438 10.3027 5.6001 12.0001 5.6001C13.6975 5.6001 15.3253 6.27438 16.5256 7.47461C17.7258 8.67485 18.4001 10.3027 18.4001 12.0001C18.4001 13.6975 17.7258 15.3253 16.5256 16.5256C15.3253 17.7258 13.6975 18.4001 12.0001 18.4001Z" fill="white"/>
</g>
<defs>
<clipPath id="clip0_1029_7890">
<rect width="24" height="24" fill="white"/>
</clipPath>
</defs>
</svg>
