<?xml version="1.0"?>
<svg xmlns="http://www.w3.org/2000/svg" xmlns:xlink="http://www.w3.org/1999/xlink" version="1.1" id="Capa_1" x="0px" y="0px" viewBox="0 0 512 512" style="enable-background:new 0 0 512 512;" xml:space="preserve" width="512px" height="512px" class=""><g><circle style="fill:#FFFFFF" cx="256" cy="256" r="256" data-original="#5A915A" class="active-path" data-old_color="#5A915A"/><path style="fill:#FFFFFF" d="M368.819,219.547l-71.51-71.51l-0.253,0.253c-21.774-18.631-51.874-30.172-85.144-30.172  c-66.434,0-120.288,45.965-120.288,102.664c0,29.613,14.696,56.292,38.195,75.029l-9.791,44.062L289.914,509.76  c96.867-12.823,176.629-79.801,207.884-169.518L396.989,239.434l-0.013,0.013C389.119,231.436,379.578,224.675,368.819,219.547z" data-original="#297F58" class="" data-old_color="#297F58"/><g>
	<path style="fill:#595959" d="M243.338,227.294c20.522-17.516,47.724-27.162,76.592-27.162c3.332,0,6.641,0.134,9.921,0.389   c-11.022-46.995-59.635-82.403-117.942-82.403c-66.434,0-120.288,45.965-120.288,102.664c0,29.613,14.696,56.292,38.195,75.029   l-9.791,44.062l43.14-25.212c14.9,5.644,31.392,8.786,48.745,8.786c1.405,0,2.803-0.029,4.197-0.069   c-3.416-9.224-5.196-18.958-5.196-28.941C210.91,268.986,222.427,245.142,243.338,227.294z M254.174,166.027   c8.505,0,15.399,6.895,15.399,15.399s-6.895,15.399-15.399,15.399c-8.505,0-15.399-6.895-15.399-15.399   C238.775,172.922,245.669,166.027,254.174,166.027z M166.91,196.827c-8.505,0-15.399-6.895-15.399-15.399   s6.895-15.399,15.399-15.399s15.399,6.895,15.399,15.399S175.415,196.827,166.91,196.827z" data-original="#FFFFFF" class="" data-old_color="#FFFFFF"/>
	<path style="fill:#595959" d="M319.931,208.706c-55.476,0-100.447,38.382-100.447,85.73s44.971,85.73,100.447,85.73   c14.49,0,28.261-2.623,40.704-7.337l36.024,21.053l-8.176-36.793c19.624-15.647,31.895-37.925,31.895-62.653   C420.378,247.088,375.406,208.706,319.931,208.706z M284.638,248.713c7.102,0,12.859,5.757,12.859,12.859   c0,7.102-5.757,12.859-12.859,12.859s-12.859-5.757-12.859-12.859C271.779,254.47,277.537,248.713,284.638,248.713z    M357.509,274.432c-7.102,0-12.859-5.757-12.859-12.859c0-7.102,5.757-12.859,12.859-12.859s12.859,5.757,12.859,12.859   C370.368,268.675,364.611,274.432,357.509,274.432z" data-original="#FFFFFF" class="" data-old_color="#FFFFFF"/>
</g></g> </svg>
