<svg width="406" height="409" viewBox="0 0 406 409" fill="none" xmlns="http://www.w3.org/2000/svg">
<rect x="6" y="229" width="168" height="168" rx="10" stroke="#D0D5DD" stroke-width="12"/>
<path d="M53.8627 343.061V331.223L95.7661 265.03H105.094V282.455H99.1752L69.2036 329.898V330.655H126.637V343.061H53.8627ZM99.838 362V339.462L99.9327 334.064V265.03H113.806V362H99.838Z" fill="#D0D5DD"/>
<rect x="240.15" y="185.69" width="168" height="168" rx="10" transform="rotate(20 240.15 185.69)" stroke="#D0D5DD" stroke-width="12"/>
<path d="M246.115 309.244L250.163 298.121L312.179 250.252L320.944 253.442L314.985 269.815L309.423 267.791L265.032 302.122L264.773 302.834L318.743 322.477L314.501 334.135L246.115 309.244ZM282.84 342.766L290.548 321.587L292.483 316.548L316.094 251.677L329.131 256.422L295.965 347.543L282.84 342.766Z" fill="#D0D5DD"/>
<rect x="55.7262" y="59.2009" width="168" height="168" rx="10" transform="rotate(-17.8439 55.7262 59.2009)" stroke="#D0D5DD" stroke-width="12"/>
<path d="M184.811 150.207C191.05 145.161 195.205 138.674 196.935 130.853C199.853 117.5 197.672 105.096 188.884 94.2429C186.289 91.013 182.974 88.6319 179.215 86.9694C167.132 81.4612 154.497 87.6764 151.201 100.587C147.365 115.787 157.37 133.347 172.117 137.027C172.32 137.101 172.545 137.22 172.951 137.366C170.286 139.194 167.481 140.016 164.487 139.967C157.682 139.918 152.341 136.69 148.053 131.665C138.657 120.592 136.122 98.9273 148.352 84.9996C157.71 74.3532 173.225 71.9672 186.3 79.0944C212.246 93.2756 214.627 129.75 190.699 147.021C188.905 148.323 186.936 149.369 185.077 150.533C184.966 150.416 184.9 150.278 184.811 150.207Z" fill="#D0D5DD"/>
<path d="M161.622 91.3578C163.738 89.7904 165.952 89.023 168.383 88.8305C175.495 88.226 181.226 91.212 185.852 96.3592C192.189 103.462 194.551 112.11 194.382 121.45C194.205 131.245 190.942 139.849 183.518 146.417C173.65 155.16 159.25 156.114 147.307 149.128C122.524 134.564 120.343 99.576 143.138 82.2779C145.116 80.7756 147.361 79.5987 149.695 78.4923C149.625 78.5818 149.532 78.7391 149.462 78.8286C139.184 87.6526 135.416 99.0938 136.719 112.366C137.555 121.342 140.583 129.505 147.09 136.019C150.432 139.403 154.357 141.89 158.963 143.094C170.071 146.072 180.51 139.6 183.418 128.115C187.23 112.983 177.203 95.3772 162.41 91.7185C162.139 91.6208 161.96 91.4798 161.622 91.3578Z" fill="#D0D5DD"/>
</svg>
