<?xml version="1.0"?>
<svg xmlns="http://www.w3.org/2000/svg" xmlns:xlink="http://www.w3.org/1999/xlink" version="1.1" id="Capa_1" x="0px" y="0px" viewBox="0 0 490.88 490.88" style="enable-background:new 0 0 490.88 490.88;" xml:space="preserve" width="512px" height="512px"><g><g>
	<g>
		<path d="M245.44,0C110.101,0,0,110.101,0,245.44s110.101,245.44,245.44,245.44s245.44-110.101,245.44-245.44S380.779,0,245.44,0z     M338.432,253.099l-128,128c-2.091,2.091-4.821,3.115-7.552,3.115c-2.731,0-5.461-1.045-7.552-3.115    c-4.16-4.16-4.16-10.923,0-15.083l120.448-120.448L195.349,125.099c-4.16-4.16-4.16-10.923,0-15.083    c4.16-4.16,10.923-4.16,15.083,0l128,128C342.592,242.176,342.592,248.939,338.432,253.099z" data-original="#000000" class="active-path" data-old_color="#000000" fill="#595959"/>
	</g>
</g></g> </svg>
