<?xml version="1.0" encoding="utf-8"?>
<!-- Generator: Adobe Illustrator 19.0.0, SVG Export Plug-In . SVG Version: 6.00 Build 0)  -->
<svg version="1.1" id="图层_1" xmlns="http://www.w3.org/2000/svg" xmlns:xlink="http://www.w3.org/1999/xlink" x="0px" y="0px"
	 viewBox="-41 164.9 512 512" style="enable-background:new -41 164.9 512 512;" xml:space="preserve">
<style type="text/css">
	.st0{fill:#595959;}
	.st1{fill:#5D5D5D;}
</style>
<g>
	<g id="surface1">
		<path class="st0" d="M394.5,303.8l0-0.4c-0.2-4.9-0.4-10.1-0.5-15.9c-0.4-28.2-22.9-51.6-51.1-53.2
			c-58.9-3.3-104.4-22.5-143.3-60.4l-0.3-0.3c-12.7-11.6-31.8-11.6-44.5,0l-0.3,0.3c-38.9,37.9-84.4,57.1-143.3,60.4
			c-28.2,1.6-50.7,24.9-51.1,53.2c-0.1,5.8-0.2,11-0.5,15.9l0,0.9c-1.1,60-2.6,134.7,22.4,202.5c13.7,37.3,34.6,69.7,61.9,96.3
			c31.1,30.3,71.8,54.4,121,71.6c1.6,0.6,3.3,1,5,1.4c2.4,0.5,4.8,0.7,7.2,0.7s4.8-0.2,7.2-0.7c1.7-0.3,3.4-0.8,5-1.4
			c49.2-17.2,89.9-41.3,120.9-71.6c27.3-26.7,48.1-59.1,61.9-96.4C397,438.8,395.6,363.9,394.5,303.8z M177,548.5
			c-70.4,0-127.6-57.2-127.6-127.6S106.6,293.3,177,293.3c70.4,0,127.6,57.2,127.6,127.6S247.4,548.5,177,548.5z"/>
	</g>
	<g>
		<path class="st1" d="M178,500.8c15.8-3.8,29-12,39-24.8c17-21.7,23.7-46.1,17-73.4c-2-8.1-6-15.2-11.3-21.6
			c-17.4-20.4-45.9-20-63.1,0.6c-20.2,24.3-17.1,64.8,6.6,84.2c0.3,0.3,0.6,0.7,1.2,1.3c-6.5,1.1-12.3,0.1-17.8-2.5
			c-12.4-6-19.4-16.4-22.9-29.3c-7.5-28.2,6.6-69.7,41-84.5c26.3-11.3,56.8-2.3,74.5,21.9c35.2,48.1,7.9,116.4-50.9,127.2
			c-4.4,0.8-8.9,1-13.3,1.5C178.1,501.3,178,501.1,178,500.8z"/>
		<path class="st1" d="M186.6,374c5.2-1,10-0.5,14.6,1.2c13.6,5,21.5,15.4,25.4,28.7c5.4,18.4,2.2,36.1-6.1,52.9
			c-8.8,17.7-22.3,30.4-41.6,36c-25.6,7.4-52.8-3.3-68.6-26.3c-32.7-47.8-6.4-113.2,50.3-125c4.9-1,10.1-1.3,15.3-1.2
			c-0.2,0.1-0.5,0.3-0.7,0.4c-26.5,7.2-43.2,24.7-52.4,49.9c-6.2,17-7.8,34.4-1.6,51.9c3.2,9,8.2,16.9,15.6,23.1
			c17.7,15,42.5,12.2,57.8-6.2c20.1-24.2,17-64.8-6.9-84.2C187.3,374.9,187.1,374.5,186.6,374z"/>
	</g>
</g>
</svg>
