<?xml version="1.0" encoding="utf-8"?>
<!-- Generator: Adobe Illustrator 19.0.0, SVG Export Plug-In . SVG Version: 6.00 Build 0)  -->
<svg version="1.1" id="Capa_1" xmlns="http://www.w3.org/2000/svg" xmlns:xlink="http://www.w3.org/1999/xlink" x="0px" y="0px"
	 viewBox="-41 164.9 512 512" style="enable-background:new -41 164.9 512 512;" xml:space="preserve">
<style type="text/css">
	.st0{fill:#595959;}
	.st1{fill:#5D5D5D;}
</style>
<g>
	<g>
		<g>
			<path class="st0" d="M430.4,383.6c10.4-0.3,18.4-8.1,18.4-18.4v-74.9c0-42.1-34.2-76.3-76.3-76.3h-24.6l0,0v-18.7
				c0-10.4-8.1-19.2-18.4-19.5c-10.8-0.3-19.7,8.3-19.7,19v19l0,0h-86.7l0,0v-18.5c0-10.4-8.1-19.2-18.4-19.5
				c-10.8-0.3-19.7,8.3-19.7,19v19l0,0H99.2l0,0v-18.7c0-10.4-8.1-19.2-18.4-19.5c-10.8-0.3-19.7,8.3-19.7,19v19l0,0H37.3
				C-4.8,214-39,248.2-39,290.3v297.2c0,42.1,34.2,76.3,76.3,76.3h335.3c25.1,0,21.1-38.1,0-38.1H37.3c-21.1,0-38.2-17.1-38.2-38.2
				V290.3c0-21.1,17.1-38.2,38.2-38.2H61l0,0v18.6c0,10.4,8.1,19.2,18.4,19.5c10.8,0.3,19.7-8.3,19.7-19v-19l0,0h85.6l0,0v18.5
				c0,10.4,8.1,19.2,18.4,19.5c10.8,0.3,19.7-8.3,19.7-19v-19l0,0h86.7l0,0v18.7c0,10.4,8.1,19.2,18.4,19.5
				c10.8,0.3,19.7-8.3,19.7-19v-19l0,0h25.1c21.1,0,38.2,17.1,38.2,38.2v73.1C410.8,374.2,419.7,384,430.4,383.6z"/>
			<g>
				<g>
					<path class="st1" d="M361.3,450.9l41.8-24.2l-41.8-24.2l-41.8,24.3L361.3,450.9z"/>
					<path class="st1" d="M358.4,456.2L316.5,432v48.3l41.8,24.2V456.2z"/>
					<path class="st1" d="M364.3,456.2v48.3l41.8-24.2V432L364.3,456.2z"/>
				</g>
			</g>
			<g>
				<g>
					<path class="st1" d="M298.3,539.2l41.8-24.2l-41.8-24.2L256.4,515L298.3,539.2z"/>
					<path class="st1" d="M295.3,544.4l-41.8-24.2v48.3l41.8,24.2V544.4z"/>
					<path class="st1" d="M301.2,544.4v48.3l41.8-24.2v-48.3L301.2,544.4z"/>
				</g>
			</g>
			<g>
				<g>
					<path class="st1" d="M427.6,495.4"/>
				</g>
			</g>
			<path class="st1" d="M423.7,490.8L381.8,515l41.8,24.2l41.8-24.2L423.7,490.8"/>
			<path class="st1" d="M420.7,544.4l-41.8-24.2v48.3l41.8,24.2V544.4z"/>
			<path class="st1" d="M426.6,544.4v48.3l41.8-24.2v-48.3L426.6,544.4z"/>
		</g>
	</g>
	<g>
		<g>
			<circle class="st0" cx="80.1" cy="376" r="19"/>
		</g>
	</g>
	<g>
		<g>
			<circle class="st0" cx="245.9" cy="376" r="19"/>
		</g>
	</g>
	<g>
		<g>
			<circle class="st0" cx="80.1" cy="458.9" r="19"/>
		</g>
	</g>
	<g>
		<g>
			<circle class="st0" cx="80.1" cy="541.8" r="19"/>
		</g>
	</g>
	<g>
		<g>
			<circle class="st0" cx="163" cy="376" r="19"/>
		</g>
	</g>
	<g>
		<g>
			<circle class="st0" cx="163" cy="458.9" r="19"/>
		</g>
	</g>
	<g>
		<g>
			<circle class="st0" cx="163" cy="541.8" r="19"/>
		</g>
	</g>
</g>
</svg>
