<?xml version="1.0" encoding="utf-8"?>
<!-- Generator: Adobe Illustrator 19.0.0, SVG Export Plug-In . SVG Version: 6.00 Build 0)  -->
<svg version="1.1" id="Capa_1" xmlns="http://www.w3.org/2000/svg" xmlns:xlink="http://www.w3.org/1999/xlink" x="0px" y="0px"
	 viewBox="-41 164.9 512 512" style="enable-background:new -41 164.9 512 512;" xml:space="preserve">
<style type="text/css">
	.st0{fill:#595959;}
	.st1{fill:#5D5D5D;}
</style>
<g>
	<g>
		<g>
			<path class="st0" d="M370.7,347.1c9.1-0.3,16.1-7.1,16.1-16.1v-65.7c0-36.9-30-66.9-66.9-66.9h-21.6c0,0,0,0,0,0V182
				c0-9.1-7.1-16.8-16.1-17.1c-9.5-0.3-17.3,7.3-17.3,16.7v16.7c0,0,0,0,0,0h-76c0,0,0,0,0,0l0-16.2c0-9.1-7.1-16.8-16.1-17.1
				c-9.5-0.3-17.3,7.3-17.3,16.7v16.7c0,0,0,0,0,0H80.2c0,0,0,0,0,0V182c0-9.1-7.1-16.8-16.1-17.1c-9.5-0.3-17.3,7.3-17.3,16.7v16.7
				c0,0,0,0,0,0H25.9c-36.9,0-66.9,30-66.9,66.9v260.7c0,36.9,30,66.9,66.9,66.9H320c22,0,18.5-33.4,0-33.4H25.9
				c-18.5,0-33.5-15-33.5-33.5V265.2c0-18.5,15-33.5,33.5-33.5h20.8c0,0,0,0,0,0V248c0,9.1,7.1,16.8,16.1,17.1
				c9.5,0.3,17.3-7.3,17.3-16.7v-16.7c0,0,0,0,0,0h75.1c0,0,0,0,0,0l0,16.2c0,9.1,7.1,16.8,16.1,17.1c9.5,0.3,17.3-7.3,17.3-16.7
				v-16.7c0,0,0,0,0,0h76c0,0,0,0,0,0V248c0,9.1,7.1,16.8,16.1,17.1c9.5,0.3,17.3-7.3,17.3-16.7v-16.7c0,0,0,0,0,0H320
				c18.5,0,33.5,15,33.5,33.5v64.1C353.5,338.8,361.3,347.4,370.7,347.1z"/>
			<g>
				<g>
					<path class="st1" d="M310.1,406.1l36.7-21.2l-36.7-21.2L273.4,385L310.1,406.1z"/>
					<path class="st1" d="M307.5,410.7l-36.7-21.2v42.4l36.7,21.2V410.7z"/>
					<path class="st1" d="M312.7,410.7v42.4l36.7-21.2v-42.4L312.7,410.7z"/>
				</g>
			</g>
			<g>
				<g>
					<path class="st1" d="M254.8,483.5l36.7-21.2l-36.7-21.2l-36.7,21.2L254.8,483.5z"/>
					<path class="st1" d="M252.2,488.1l-36.7-21.2v42.4l36.7,21.2V488.1z"/>
					<path class="st1" d="M257.4,488.1v42.4l36.7-21.2v-42.4L257.4,488.1z"/>
				</g>
			</g>
			<g>
				<g>
					<path class="st1" d="M368.2,445.1"/>
				</g>
			</g>
			<path class="st1" d="M364.8,441.1l-36.7,21.2l36.7,21.2l36.7-21.2L364.8,441.1"/>
			<path class="st1" d="M362.2,488.1l-36.7-21.2v42.4l36.7,21.2V488.1z"/>
			<path class="st1" d="M367.4,488.1v42.4l36.7-21.2v-42.4L367.4,488.1z"/>
		</g>
	</g>
	<g>
		<g>
			<circle class="st0" cx="63.5" cy="340.4" r="16.7"/>
		</g>
	</g>
	<g>
		<g>
			<circle class="st0" cx="208.9" cy="340.4" r="16.7"/>
		</g>
	</g>
	<g>
		<g>
			<circle class="st0" cx="63.5" cy="413.1" r="16.7"/>
		</g>
	</g>
	<g>
		<g>
			<circle class="st0" cx="63.5" cy="485.8" r="16.7"/>
		</g>
	</g>
	<g>
		<g>
			<circle class="st0" cx="136.2" cy="340.4" r="16.7"/>
		</g>
	</g>
	<g>
		<g>
			<circle class="st0" cx="136.2" cy="413.1" r="16.7"/>
		</g>
	</g>
	<g>
		<g>
			<circle class="st0" cx="136.2" cy="485.8" r="16.7"/>
		</g>
	</g>
	<g>
		<g>
		</g>
	</g>
</g>
</svg>
