<?xml version="1.0" encoding="utf-8"?>
<!-- Generator: Adobe Illustrator 19.0.0, SVG Export Plug-In . SVG Version: 6.00 Build 0)  -->
<svg version="1.1" id="图层_1" xmlns="http://www.w3.org/2000/svg" xmlns:xlink="http://www.w3.org/1999/xlink" x="0px" y="0px"
	 viewBox="-41 164.9 512 512" style="enable-background:new -41 164.9 512 512;" xml:space="preserve">
<style type="text/css">
	.st0{fill:#595955;}
	.st1{fill:#FFFFFF;}
</style>
<g>
	<path class="st0" d="M169.5,411.5c33.9,0,63.2-12.2,87.2-36.1c24-24,36.1-53.3,36.1-87.2S280.6,225,256.7,201
		c-24-24-53.3-36.1-87.2-36.1s-63.2,12.2-87.2,36.1s-36.2,53.3-36.2,87.2s12.2,63.2,36.1,87.2C106.2,399.4,135.6,411.5,169.5,411.5z
		"/>
	<path class="st0" d="M385.2,558.6c-0.7-10-2.1-20.9-4.1-32.4c-2.1-11.6-4.8-22.5-8-32.5c-3.3-10.3-7.8-20.6-13.4-30.3
		c-5.8-10.2-12.6-19-20.2-26.3c-8-7.6-17.7-13.7-29-18.2c-11.2-4.4-23.7-6.7-37-6.7c-5.2,0-10.3,2.1-20,8.5c-6,3.9-13,8.4-20.9,13.5
		c-6.7,4.3-15.8,8.3-27,11.9c-10.9,3.5-22.1,5.3-33,5.3s-22.1-1.8-33-5.3c-11.2-3.6-20.3-7.6-27-11.9c-7.8-5-14.8-9.5-20.9-13.5
		c-9.8-6.4-14.8-8.5-20-8.5c-13.3,0-25.7,2.3-37,6.7c-11.3,4.5-21,10.6-29,18.2c-7.6,7.3-14.4,16.1-20.2,26.3
		c-5.6,9.8-10.1,20-13.4,30.3c-3.2,10-5.9,20.9-8,32.5c-2.1,11.5-3.5,22.4-4.1,32.4c-0.7,9.8-1,20-1,30.2c0,26.7,8.5,48.4,25.3,64.3
		c16.5,15.7,38.4,23.7,65.1,23.7h246.5c26.6,0,48.5-8,65.1-23.7c16.8-15.9,25.3-37.6,25.3-64.3C386.3,578.5,385.9,568.3,385.2,558.6
		z"/>
</g>
<g>
	<path class="st1" d="M217.3,530.5c2.7,2.7,2.7,7.1,0,9.8l-46.5,46.5c-2.7,2.7-7.1,2.7-9.8,0l-22.2-22.2c-2.7-2.7-2.7-7.1,0-9.8
		s7.1-2.7,9.8,0l17.2,17.2l41.6-41.6C210.1,527.7,214.6,527.7,217.3,530.5z M266.8,558.6c0,49.1-39.7,88.8-88.8,88.8
		s-88.8-39.7-88.8-88.8s39.7-88.8,88.8-88.8S266.8,509.6,266.8,558.6z M252.9,558.6c0-41.4-33.5-74.9-74.9-74.9
		s-74.9,33.5-74.9,74.9s33.5,74.9,74.9,74.9S252.9,600,252.9,558.6z"/>
</g>
</svg>
