<?xml version="1.0" encoding="utf-8"?>
<!-- Generator: Adobe Illustrator 19.0.0, SVG Export Plug-In . SVG Version: 6.00 Build 0)  -->
<svg version="1.1" id="Capa_1" xmlns="http://www.w3.org/2000/svg" xmlns:xlink="http://www.w3.org/1999/xlink" x="0px" y="0px"
	 viewBox="-41 164.9 512 512" style="enable-background:new -41 164.9 512 512;" xml:space="preserve">
<style type="text/css">
	.st0{fill:#595959;}
	.st1{fill:#5D5D5D;}
</style>
<g>
	<g>
		<g>
			<path class="st0" d="M402.1,544c-14.6,0-28.2-7.2-36.5-19.2l-21.7-31.5c-25.5,45.8-74.1,75.4-128.9,75.4
				c-76.5,0-139.5-58.4-147-132.9h14c5.5,0,10.5-3,13.1-7.9c2.6-4.9,2.2-10.7-0.9-15.2l-21.5-31.3l-32.6-47.5
				c-2.8-4-7.3-6.4-12.2-6.4c-0.6,0-1.2,0-1.8,0.1s-1.2,0.2-1.8,0.3c-1.4,0.4-2.8,0.9-4.1,1.7c-1.8,1.1-3.3,2.5-4.5,4.3l-54.2,78.8
				c-3.1,4.5-3.5,10.4-0.9,15.2c2.6,4.9,7.6,7.9,13.1,7.9H-11c3.5,54.9,26.6,106.1,65.9,145.4c42.8,42.8,99.6,66.3,160.1,66.3
				s117.4-23.6,160.1-66.3c11.4-11.4,21.4-23.8,30.1-37.2C404.2,543.9,403.1,544,402.1,544z"/>
		</g>
	</g>
	<g>
		<g>
			<path class="st1" d="M217.9,497.7c15.8-3.8,29-12,39-24.8c17-21.7,23.7-46.1,17-73.4c-2-8.1-6-15.2-11.3-21.6
				c-17.4-20.4-45.9-20-63.1,0.6c-20.2,24.3-17.1,64.8,6.6,84.2c0.3,0.3,0.6,0.7,1.2,1.3c-6.5,1.1-12.3,0.1-17.8-2.5
				c-12.4-6-19.4-16.4-22.9-29.3c-7.5-28.2,6.6-69.7,41-84.5c26.3-11.3,56.8-2.3,74.5,21.9c35.2,48.1,7.9,116.4-50.9,127.2
				c-4.4,0.8-8.9,1-13.3,1.5C218,498.3,217.9,498,217.9,497.7z"/>
			<path class="st1" d="M226.5,370.9c5.2-1,10-0.5,14.6,1.2c13.6,5,21.5,15.4,25.4,28.7c5.4,18.4,2.2,36.1-6.1,52.9
				c-8.8,17.7-22.3,30.4-41.6,36c-25.6,7.4-52.8-3.3-68.6-26.3c-32.7-47.8-6.4-113.2,50.3-125c4.9-1,10.1-1.3,15.3-1.2
				c-0.2,0.1-0.5,0.3-0.7,0.4c-26.5,7.2-43.2,24.7-52.4,49.9c-6.2,17-7.8,34.4-1.6,51.9c3.2,9,8.2,16.9,15.6,23.1
				c17.7,15,42.5,12.2,57.8-6.2c20.1-24.2,17-64.8-6.9-84.2C227.2,371.8,227,371.5,226.5,370.9z"/>
		</g>
	</g>
	<g>
		<g>
			<path class="st0" d="M469.3,414c-2.6-4.9-7.6-7.9-13.1-7.9H441c-3.5-54.9-26.6-106.1-65.9-145.4c-42.8-42.8-99.6-66.3-160.1-66.3
				S97.6,218,54.9,260.8c-11.4,11.4-21.4,23.8-30.1,37.2c1-0.1,2.1-0.1,3.1-0.1c14.6,0,28.2,7.2,36.5,19.2l21.7,31.5
				c25.5-45.8,74.1-75.4,128.9-75.4c76.5,0,139.5,58.4,147,132.9h-14c-5.5,0-10.5,3-13.1,7.9c-2.6,4.9-2.2,10.7,0.9,15.2l21.5,31.3
				l32.6,47.5c0.7,1,1.5,1.9,2.4,2.7c2.7,2.4,6.1,3.7,9.8,3.7c4.9,0,9.4-2.4,12.2-6.4l19.6-28.4l34.6-50.3
				C471.5,424.7,471.9,418.9,469.3,414z"/>
		</g>
	</g>
</g>
</svg>
