<?xml version="1.0" encoding="utf-8"?>
<!-- Generator: Adobe Illustrator 19.0.0, SVG Export Plug-In . SVG Version: 6.00 Build 0)  -->
<svg version="1.1" id="Capa_1" xmlns="http://www.w3.org/2000/svg" xmlns:xlink="http://www.w3.org/1999/xlink" x="0px" y="0px"
	 viewBox="-41 164.9 512 512" style="enable-background:new -41 164.9 512 512;" xml:space="preserve">
<style type="text/css">
	.st0{fill:#595959;}
	.st1{fill:#FAFAFC;}
</style>
<g>
	<g>
		<path class="st0" d="M268,279.4c23.7,14.8,40.3,40,43.3,69.1c9.7,4.5,20.4,7.1,31.7,7.1c41.5,0,75.1-33.6,75.1-75.1
			c0-41.5-33.6-75.1-75.1-75.1C301.9,205.5,268.6,238.5,268,279.4z M218.8,433.2c41.5,0,75.1-33.6,75.1-75.1S260.2,283,218.8,283
			s-75.1,33.6-75.1,75.1S177.3,433.2,218.8,433.2z M250.6,438.3h-63.7c-53,0-96.1,43.1-96.1,96.2v77.9l0.2,1.2l5.4,1.7
			c50.6,15.8,94.5,21.1,130.7,21.1c70.7,0,111.6-20.1,114.1-21.4l5-2.5h0.5v-77.9C346.8,481.4,303.6,438.3,250.6,438.3z
			 M374.9,360.8h-63.2c-0.7,25.3-11.5,48.1-28.6,64.5c47.1,14,81.6,57.7,81.6,109.3v24c62.4-2.3,98.4-20,100.8-21.2l5-2.5h0.5v-77.9
			C471,403.9,427.9,360.8,374.9,360.8z M87,355.6c14.7,0,28.4-4.3,39.9-11.6c3.7-24,16.5-45,34.9-59.3c0.1-1.4,0.2-2.8,0.2-4.2
			c0-41.5-33.6-75.1-75.1-75.1c-41.5,0-75.1,33.6-75.1,75.1C11.9,322,45.5,355.6,87,355.6z M154.5,425.2c-17-16.3-27.8-39-28.5-64.1
			c-2.3-0.2-4.7-0.4-7.1-0.4H55.1c-53,0-96.1,43.1-96.1,96.1v77.9l0.2,1.2l5.4,1.7c40.6,12.7,76.8,18.5,108.3,20.4v-23.5
			C72.9,482.9,107.3,439.2,154.5,425.2z"/>
	</g>
</g>
<g>
	<g>
		<path class="st1" d="M219.8,624.3c15.8-3.8,29-12,39-24.8c17-21.7,23.7-46.1,17-73.4c-2-8.1-6-15.2-11.3-21.6
			c-17.4-20.4-45.9-20-63.1,0.6c-20.2,24.3-17.1,64.8,6.6,84.2c0.3,0.3,0.6,0.7,1.2,1.3c-6.5,1.1-12.3,0.1-17.8-2.5
			c-12.4-6-19.4-16.4-22.9-29.3c-7.5-28.2,6.6-69.7,41-84.5c26.3-11.3,56.8-2.3,74.5,21.9c35.2,48.1,7.9,116.4-50.9,127.2
			c-4.4,0.8-8.9,1-13.3,1.5C219.8,624.8,219.8,624.6,219.8,624.3z"/>
		<path class="st1" d="M228.3,497.5c5.2-1,10-0.5,14.6,1.2c13.6,5,21.5,15.4,25.4,28.7c5.4,18.4,2.2,36.1-6.1,52.9
			c-8.8,17.7-22.3,30.4-41.6,36c-25.6,7.4-52.8-3.3-68.6-26.3c-32.7-47.8-6.4-113.2,50.3-125c4.9-1,10.1-1.3,15.3-1.2
			c-0.2,0.1-0.5,0.3-0.7,0.4c-26.5,7.2-43.2,24.7-52.4,49.9c-6.2,17-7.8,34.4-1.6,51.9c3.2,9,8.2,16.9,15.6,23.1
			c17.7,15,42.5,12.2,57.8-6.2c20.1-24.2,17-64.8-6.9-84.2C229.1,498.4,228.8,498,228.3,497.5z"/>
	</g>
</g>
</svg>
