<?xml version="1.0" standalone="no"?><!DOCTYPE svg PUBLIC "-//W3C//DTD SVG 1.1//EN" "http://www.w3.org/Graphics/SVG/1.1/DTD/svg11.dtd"><svg t="1601222490060" class="icon" viewBox="0 0 1024 1024" version="1.1" xmlns="http://www.w3.org/2000/svg" p-id="1193" xmlns:xlink="http://www.w3.org/1999/xlink" width="200" height="200"><defs><style type="text/css"></style></defs><path d="M419.752825 765.136457C430.324747 808.284412 469.259538 840.305371 515.663239 840.305371 562.066944 840.305371 601.001735 808.284412 611.573658 765.136457L794.673982 765.136457C801.512839 765.136457 807.656839 760.930743 810.070554 754.530743 812.484268 748.094171 810.692268 740.926171 805.535696 736.391314 773.645411 708.560457 749.471696 648.363886 746.107125 586.448457L746.107125 495.1296C746.107125 417.3056 727.089982 356.560457 689.531125 314.6496 659.439587 281.052521 618.079217 260.143627 566.208611 252.219757L566.208611 232.155429C566.208611 204.982857 543.351468 182.857143 516.178896 182.857143 489.006325 182.857143 466.149182 204.982857 466.149182 232.155429L466.149182 252.167499C414.147657 260.051425 372.735916 280.978395 342.577984 314.6496 305.055698 356.560457 286.257984 417.3056 286.257984 495.1296L286.257984 586.448457C282.052269 646.6816 257.439698 708.267886 225.256841 736.391314 220.100269 740.8896 218.015698 748.094171 220.429412 754.530743 222.843126 760.930743 228.987126 765.136457 235.825984 765.136457L419.752825 765.136457ZM573.191161 765.136457C563.887353 787.765307 541.602011 803.733943 515.663239 803.733943 489.719574 803.733943 467.435772 787.763621 458.125316 765.136457L573.191161 765.136457ZM499.794896 248.950991 499.794896 232.155429C499.794896 223.085714 507.109182 215.734857 516.178896 215.734857 525.248611 215.734857 532.562896 223.085714 532.562896 232.155429L532.562896 248.966816C527.138066 248.723427 521.616772 248.6016 515.999696 248.6016 510.50571 248.6016 505.103927 248.718147 499.794896 248.950991ZM0 146.170107C0 65.442586 65.613541 0 146.170107 0L877.829892 0C958.557414 0 1024 65.613541 1024 146.170107L1024 877.829892C1024 958.557414 958.386458 1024 877.829892 1024L146.170107 1024C65.442586 1024 0 958.386458 0 877.829892L0 146.170107ZM515.999696 285.173029C581.060268 285.173029 630.285411 303.312457 662.285411 339.079314 693.663696 374.078171 709.535696 426.594743 709.535696 495.1296L709.535696 586.448457 709.535696 587.472457 709.608839 588.459886C712.424839 640.757029 728.150554 691.445029 751.812268 728.565029L278.870555 728.565029C302.605412 691.408457 319.135698 640.2816 322.719698 589.008457L322.829412 587.728457 322.829412 586.448457 322.829412 495.1296C322.829412 426.411886 338.628269 373.895314 369.823696 339.079314 401.823696 303.312457 451.012268 285.173029 515.999696 285.173029Z" p-id="1194"></path></svg>