<svg width="30" height="30" viewBox="0 0 30 30" fill="none" xmlns="http://www.w3.org/2000/svg">
<g clip-path="url(#clip0_1461_12894)">
<circle cx="15" cy="15" r="15" fill="#F2F4F7"/>
<path d="M18.2728 21.2368H11.808C10.1184 21.2368 8.74316 19.8616 8.74316 18.172V11.7072C8.74316 10.0176 10.1184 8.6424 11.808 8.6424H18.2728C19.9624 8.6424 21.3376 10.0176 21.3376 11.7072V18.172C21.3376 19.8616 19.9624 21.2368 18.2728 21.2368ZM11.808 9.7624C10.736 9.7624 9.86316 10.6344 9.86316 11.7072V18.172C9.86316 19.244 10.7352 20.1168 11.808 20.1168H18.2728C19.3448 20.1168 20.2176 19.2448 20.2176 18.172V11.7072C20.2176 10.6352 19.3456 9.7624 18.2728 9.7624H11.808Z" fill="#667085"/>
<path d="M11.7359 16.8504C11.5895 16.8504 11.4439 16.7936 11.3343 16.6808C11.2309 16.5742 11.174 16.431 11.1761 16.2825C11.1782 16.134 11.2391 15.9924 11.3455 15.8888L13.5719 13.7256C13.9447 13.364 14.5479 13.3664 14.9167 13.732L16.1351 14.9392L17.8583 13.1296C17.909 13.0763 17.9697 13.0336 18.037 13.0038C18.1043 12.974 18.1768 12.9577 18.2503 12.9559C18.3239 12.9541 18.397 12.9669 18.4657 12.9934C18.5343 13.0199 18.597 13.0597 18.6503 13.1104C18.7036 13.1612 18.7463 13.2219 18.7761 13.2891C18.8059 13.3564 18.8222 13.4289 18.824 13.5024C18.8258 13.576 18.813 13.6492 18.7865 13.7178C18.76 13.7864 18.7202 13.8492 18.6695 13.9024L16.8343 15.8304C16.7465 15.9233 16.6409 15.9976 16.5238 16.0489C16.4067 16.1002 16.2805 16.1273 16.1527 16.1288C15.8943 16.1312 15.6479 16.0336 15.4623 15.8504L14.2399 14.6384L12.1263 16.6928C12.0215 16.794 11.8815 16.8505 11.7359 16.8504Z" fill="#667085"/>
</g>
<defs>
<clipPath id="clip0_1461_12894">
<rect width="30" height="30" fill="white"/>
</clipPath>
</defs>
</svg>
