<svg width="200" height="60" viewBox="0 0 200 60" fill="none" xmlns="http://www.w3.org/2000/svg">
<g clip-path="url(#clip0_1002_3991)">
<path d="M49.6493 13.6865C49.6493 23.9454 49.6493 34.194 49.6493 44.453C49.6287 44.4841 49.5979 44.5152 49.5876 44.5463C49.3507 44.9198 49.083 45.1791 48.5785 45.1376C47.8268 45.065 47.0751 45.0443 46.3235 45.0131C43.8625 44.8887 41.3913 44.7538 38.9304 44.6293C35.1411 44.4322 31.3519 44.2248 27.5627 44.0381C27.3774 44.0277 27.1611 44.1003 27.017 44.204C25.4416 45.3139 23.8764 46.4342 22.3113 47.5545C22.1878 47.5545 22.0745 47.5545 21.9509 47.5545C21.8274 47.3989 21.7759 47.2226 21.8789 47.0359C21.9304 46.9322 21.9612 46.8077 22.0127 46.7039C23.1042 44.6812 24.2059 42.6688 25.3077 40.6461C25.6269 40.0652 26.0285 39.8992 26.6772 39.9511C27.5318 40.0133 28.407 40.0963 29.2514 40.0237C35.0382 39.5258 39.2702 34.2251 38.5597 28.4162C37.8492 22.6177 32.5669 18.5099 26.811 19.3917C22.8159 20.0037 20.0049 22.2857 18.6148 26.103C17.2247 29.9307 17.9661 33.4679 20.5815 36.5902C21.2199 37.3578 21.9921 37.9698 22.8262 38.5092C23.238 38.7789 23.3822 39.2353 23.1866 39.6191C22.5894 40.7394 22.0024 41.8701 21.3949 42.98C21.189 43.3638 20.8492 43.6543 20.3961 43.6335C18.8516 43.5816 17.3071 43.4779 15.7626 43.3949C13.2193 43.2601 10.676 43.1149 8.12235 43.0008C7.75167 42.98 7.46336 42.8763 7.23683 42.5962C7.15445 42.4925 7.08237 42.3784 7 42.2643C7 33.4679 7 24.6612 7 15.8648C7.04119 15.8129 7.08237 15.7611 7.11326 15.6988C7.3089 15.4291 7.50454 15.1594 7.87523 15.1387C9.45064 15.0557 11.0158 14.9727 12.5912 14.8897C15.083 14.7653 17.5851 14.6304 20.0769 14.5059C23.3307 14.3296 26.5845 14.1533 29.8486 13.9873C32.3404 13.8524 34.8425 13.728 37.3344 13.6035C41.0824 13.4064 44.8304 13.2093 48.5785 13.0018C48.98 12.9811 49.2478 13.1367 49.4743 13.4168C49.5464 13.4997 49.5979 13.5931 49.6493 13.6865Z" fill="#175CD3"/>
<path d="M28.4277 37.7931C30.0134 37.4093 31.3417 36.5795 32.3405 35.2932C34.0395 33.0941 34.719 30.6253 34.0498 27.8661C33.8541 27.0466 33.4525 26.3205 32.9068 25.6877C31.1667 23.6235 28.3041 23.665 26.5743 25.75C24.5458 28.2084 24.8547 32.3058 27.2436 34.2663C27.2745 34.2974 27.3054 34.3389 27.3671 34.4011C26.7184 34.5048 26.1315 34.4115 25.5858 34.1418C24.3399 33.5401 23.6397 32.4821 23.2896 31.1855C22.5276 28.3329 23.9486 24.1318 27.4083 22.6381C30.0546 21.497 33.1128 22.4098 34.8941 24.8579C38.4259 29.7229 35.6869 36.6313 29.7869 37.7205C29.3441 37.8035 28.8911 37.8242 28.4483 37.8761C28.438 37.845 28.438 37.8139 28.4277 37.7931Z" fill="#175CD3"/>
<path d="M29.2928 24.9619C29.8179 24.8582 30.2916 24.9101 30.7549 25.0864C32.1141 25.5947 32.9069 26.6424 33.3085 27.9909C33.8542 29.8477 33.535 31.6422 32.6907 33.3434C31.8052 35.1275 30.4563 36.4242 28.5205 36.9843C25.9463 37.7312 23.2177 36.6524 21.6319 34.3288C18.3473 29.495 20.9935 22.877 26.6877 21.684C27.1819 21.5803 27.6968 21.5596 28.2219 21.5596C28.2013 21.5699 28.1704 21.5907 28.1498 21.6011C25.4932 22.3272 23.8046 24.101 22.8882 26.6527C22.2601 28.3747 22.1056 30.1381 22.7337 31.9015C23.0529 32.8144 23.5574 33.6131 24.2988 34.2355C26.0802 35.7499 28.5617 35.4699 30.0959 33.6131C32.1141 31.165 31.8052 27.0573 29.406 25.0968C29.3648 25.0553 29.3442 25.0138 29.2928 24.9619Z" fill="#175CD3"/>
<path d="M67.6582 37.3975C63.0498 37.3975 60.1924 34.2607 60.1924 29.2549V29.2334C60.1924 24.2168 63.0928 21.1016 67.6582 21.1016C72.2236 21.1016 75.1133 24.2275 75.1133 29.2334V29.2549C75.1133 34.2607 72.2344 37.3975 67.6582 37.3975ZM67.6582 34.6475C70.1826 34.6475 71.8047 32.5312 71.8047 29.2549V29.2334C71.8047 25.9463 70.1719 23.8516 67.6582 23.8516C65.1338 23.8516 63.501 25.9463 63.501 29.2334V29.2549C63.501 32.5312 65.1016 34.6475 67.6582 34.6475ZM76.6009 37L81.9827 21.499H85.7962L91.1887 37H87.7727L86.6233 33.2402H81.1555L80.0061 37H76.6009ZM83.7981 24.5928L81.8968 30.8125H85.8821L83.9915 24.5928H83.7981ZM99.5836 37.3975C95.8775 37.3975 93.5357 35.625 93.3531 32.875L93.3423 32.7031H96.4683L96.4791 32.8105C96.5972 33.9707 97.8541 34.7549 99.6695 34.7549C101.399 34.7549 102.591 33.9277 102.591 32.7354V32.7246C102.591 31.7041 101.829 31.1348 99.9058 30.7373L98.273 30.4043C95.0504 29.749 93.6646 28.2451 93.6646 25.8926V25.8818C93.6646 23.0029 96.1353 21.1016 99.5728 21.1016C103.193 21.1016 105.32 23.0137 105.524 25.6025L105.535 25.7422H102.484L102.462 25.6133C102.28 24.5068 101.206 23.7334 99.5728 23.7334C97.9722 23.7441 96.9087 24.4746 96.9087 25.6348V25.6455C96.9087 26.6553 97.6607 27.2568 99.4869 27.6328L101.13 27.9658C104.407 28.6426 105.836 29.9531 105.836 32.3701V32.3809C105.836 35.4531 103.451 37.3975 99.5836 37.3975ZM109.128 37V21.499H112.372V37H109.128ZM121.895 37.3975C118.189 37.3975 115.847 35.625 115.664 32.875L115.653 32.7031H118.779L118.79 32.8105C118.908 33.9707 120.165 34.7549 121.981 34.7549C123.71 34.7549 124.902 33.9277 124.902 32.7354V32.7246C124.902 31.7041 124.14 31.1348 122.217 30.7373L120.584 30.4043C117.361 29.749 115.976 28.2451 115.976 25.8926V25.8818C115.976 23.0029 118.446 21.1016 121.884 21.1016C125.504 21.1016 127.631 23.0137 127.835 25.6025L127.846 25.7422H124.795L124.774 25.6133C124.591 24.5068 123.517 23.7334 121.884 23.7334C120.283 23.7441 119.22 24.4746 119.22 25.6348V25.6455C119.22 26.6553 119.972 27.2568 121.798 27.6328L123.442 27.9658C126.718 28.6426 128.147 29.9531 128.147 32.3701V32.3809C128.147 35.4531 125.762 37.3975 121.895 37.3975Z" fill="#344054"/>
<path d="M142.874 37.3975C139.168 37.3975 136.826 35.625 136.643 32.875L136.632 32.7031H139.758L139.769 32.8105C139.887 33.9707 141.144 34.7549 142.96 34.7549C144.689 34.7549 145.882 33.9277 145.882 32.7354V32.7246C145.882 31.7041 145.119 31.1348 143.196 30.7373L141.563 30.4043C138.341 29.749 136.955 28.2451 136.955 25.8926V25.8818C136.955 23.0029 139.425 21.1016 142.863 21.1016C146.483 21.1016 148.61 23.0137 148.814 25.6025L148.825 25.7422H145.774L145.753 25.6133C145.57 24.5068 144.496 23.7334 142.863 23.7334C141.262 23.7441 140.199 24.4746 140.199 25.6348V25.6455C140.199 26.6553 140.951 27.2568 142.777 27.6328L144.421 27.9658C147.697 28.6426 149.126 29.9531 149.126 32.3701V32.3809C149.126 35.4531 146.741 37.3975 142.874 37.3975ZM159.003 37.3975C154.513 37.3975 151.73 34.2822 151.73 29.2549V29.2334C151.73 24.2061 154.502 21.1016 159.003 21.1016C162.677 21.1016 165.427 23.4434 165.728 26.7197V26.8486H162.569V26.7734C162.236 25.0332 160.851 23.8516 159.003 23.8516C156.564 23.8516 155.05 25.9033 155.05 29.2334V29.2549C155.05 32.585 156.564 34.6475 159.014 34.6475C160.872 34.6475 162.215 33.5625 162.559 31.9082L162.58 31.8223H165.738L165.728 31.9404C165.394 35.1846 162.741 37.3975 159.003 37.3975ZM167.344 37L172.726 21.499H176.539L181.932 37H178.516L177.366 33.2402H171.899L170.749 37H167.344ZM174.541 24.5928L172.64 30.8125H176.625L174.735 24.5928H174.541ZM184.784 37V21.499H187.491L194.645 31.3711H194.817V21.499H197.921V37H195.236L188.06 27.085H187.888V37H184.784Z" fill="#175CD3"/>
</g>
<defs>
<clipPath id="clip0_1002_3991">
<rect width="200" height="60" fill="white"/>
</clipPath>
</defs>
</svg>
