<?xml version="1.0" encoding="UTF-8"?>
<svg width="157px" height="127px" viewBox="0 0 157 127" version="1.1" xmlns="http://www.w3.org/2000/svg" xmlns:xlink="http://www.w3.org/1999/xlink">
    <!-- Generator: Sketch 64 (93537) - https://sketch.com -->
    <title>编组</title>
    <desc>Created with Sketch.</desc>
    <g id="Welcome" stroke="none" stroke-width="1" fill="none" fill-rule="evenodd">
        <g id="Tablet-Portrait" transform="translate(0.000000, -98.000000)" fill="#FFFFFF" fill-rule="nonzero">
            <g id="oasis-logo" transform="translate(0.000000, 98.000000)">
                <g id="编组">
                    <path d="M156.508018,2.68387097 C156.508018,40.0417819 156.508018,77.401659 156.508018,114.75957 C156.427404,114.867711 156.336959,114.969954 156.266175,115.082028 C155.412842,116.456406 154.412043,117.404117 152.559877,117.22126 C149.813088,116.951889 147.046636,116.896836 144.288049,116.755269 C135.23957,116.289278 126.193057,115.82722 117.144578,115.357296 C103.243502,114.635699 89.342427,113.898372 75.4393856,113.214132 C74.774808,113.180707 73.9784946,113.432381 73.4299232,113.815791 C67.6473118,117.856344 61.9040246,121.951951 56.1489401,126.033794 C55.7065438,126.033794 55.2641475,126.033794 54.8217512,126.033794 C54.3498618,125.451797 54.1905991,124.842273 54.5700768,124.134439 C54.7745622,123.752995 54.8591091,123.306667 55.0655607,122.927189 C59.0884178,115.569647 63.121106,108.218003 67.151828,100.864393 C68.307957,98.7546544 69.7826114,98.158894 72.1735177,98.3417512 C75.319447,98.5835945 78.5105991,98.8863902 81.6368664,98.6189862 C102.862058,96.8061444 118.385253,77.5098003 115.785929,56.3396621 C113.192504,35.2068817 93.8037481,20.2519201 72.6906298,23.4843625 C58.0404301,25.7278034 47.7217819,34.0330568 42.631275,47.9360983 C37.5250384,61.8863287 40.2580645,74.7610445 49.8354531,86.1276805 C52.1772043,88.9059293 54.9987097,91.157235 58.067957,93.1018126 C59.5898003,94.0672197 60.1226421,95.7345622 59.3735177,97.1384332 C57.1929954,101.228141 55.0242704,105.323748 52.7808295,109.378065 C52.012043,110.768172 50.7654685,111.835822 49.1256528,111.776836 C43.4590476,111.570384 37.798341,111.222366 32.1356682,110.923502 C22.7961905,110.433917 13.4567127,109.914839 4.11526882,109.482273 C2.75858679,109.419355 1.70076805,109.045776 0.874961598,108.003687 C0.568233487,107.616344 0.290998464,107.203441 -3.12944414e-13,106.802335 C-3.12944414e-13,74.7492473 -3.12944414e-13,42.6961598 -3.12944414e-13,10.6430722 C0.143533026,10.4444854 0.283133641,10.2458986 0.428632873,10.049278 C1.146298,9.07403994 1.87182796,8.09486943 3.2324424,8.02408602 C9.00325653,7.71932412 14.7760369,7.41849462 20.546851,7.12356375 C29.7015054,6.65364055 38.8561598,6.19551459 48.0108141,5.71576037 C59.959447,5.08854071 71.9061137,4.43969278 83.8547465,3.81247312 C93.0094009,3.33271889 102.164055,2.87459293 111.31871,2.39877112 C125.068387,1.68110599 138.820031,0.977204301 152.567742,0.202519201 C154.048295,0.11797235 155.021567,0.678341014 155.867035,1.72436252 C156.106912,2.01929339 156.295668,2.36141321 156.508018,2.68387097 Z" id="路径"></path>
                    <path d="M78.6384025,90.4847926 C84.4662366,89.075023 89.3345622,86.0608295 92.9995699,81.3635637 C99.248172,73.3552074 101.71576,64.3696467 99.2678341,54.3223349 C98.5442704,51.3553303 97.0755146,48.7107834 95.0857143,46.3808295 C88.6817819,38.8758218 78.1783103,39.01149 71.8372965,46.6167742 C64.3794777,55.5669432 65.5238095,70.4943779 74.2832565,77.6513671 C74.4130261,77.7575422 74.5093702,77.8991091 74.7217204,78.1350538 C72.3406452,78.5223963 70.2033794,78.1822427 68.1781874,77.2030722 C63.6126575,74.995023 61.0231644,71.1668203 59.7569278,66.4223656 C56.978679,56.0191705 62.1714286,40.7397849 74.8691859,35.28553 C84.5724117,31.1171736 95.8014132,34.4498925 102.323318,43.3607373 C115.294378,61.0821505 105.237235,86.2495853 83.5794777,90.2252535 C81.9612903,90.5221505 80.3037788,90.6007988 78.6639631,90.7816897 C78.6541321,90.6833794 78.6462673,90.5831029 78.6384025,90.4847926 Z" id="路径"></path>
                    <path d="M81.7902304,43.7480799 C83.7053149,43.3882642 85.4650691,43.5671889 87.1697696,44.198341 C92.1717972,46.0485407 95.0817819,49.8570814 96.5387404,54.7745622 C98.5423041,61.5422427 97.3625806,68.0680799 94.2894009,74.2557296 C91.0530261,80.7697696 86.084424,85.4670353 78.9746237,87.5099232 C69.5447005,90.2193548 59.5032873,86.3085714 53.6990476,77.8184946 C41.6560369,60.2052227 51.3454992,36.0897081 72.2364363,31.7483257 C74.0610753,31.3688479 75.9447005,31.2823349 77.8637174,31.3098618 C77.7732719,31.3570507 77.6867588,31.4199693 77.5904147,31.4474962 C67.8380338,34.0999078 61.6543164,40.5667588 58.2665438,49.8413518 C55.975914,56.1115822 55.4076805,62.5332104 57.6924117,68.976467 C58.8682028,72.2973886 60.7203687,75.1936098 63.4317665,77.4822734 C69.9694009,83.0033794 79.0807988,81.986851 84.7159447,75.195576 C92.1226421,66.2690015 90.9901075,51.3199386 82.1756068,44.1727803 C82.0615668,44.0823349 81.9789862,43.9604301 81.7902304,43.7480799 Z" id="路径"></path>
                </g>
            </g>
        </g>
    </g>
</svg>