<?xml version="1.0" encoding="utf-8"?>
<!-- Generator: Adobe Illustrator 23.0.2, SVG Export Plug-In . SVG Version: 6.00 Build 0)  -->
<svg version="1.1" id="图层_1" xmlns="http://www.w3.org/2000/svg" xmlns:xlink="http://www.w3.org/1999/xlink" x="0px" y="0px"
	 viewBox="0 0 1920 1080" style="enable-background:new 0 0 1920 1080;" xml:space="preserve">
<style type="text/css">
	.st0{fill:#FFFFFF;}
	.st1{font-family:'PingFang-SC-Medium';}
	.st2{font-size:228.076px;}
</style>
<g>
	<path class="st0" d="M457.48,395.92c0,89.15,0,178.3,0,267.45c-0.19,0.26-0.41,0.5-0.58,0.77c-2.03,3.28-4.43,5.54-8.85,5.11
		c-6.55-0.64-13.16-0.77-19.74-1.11c-21.59-1.11-43.18-2.22-64.77-3.34c-33.17-1.72-66.34-3.48-99.52-5.12
		c-1.59-0.08-3.49,0.52-4.8,1.44c-13.8,9.64-27.51,19.42-41.24,29.15c-1.06,0-2.11,0-3.17,0c-1.13-1.39-1.51-2.84-0.6-4.53
		c0.49-0.91,0.69-1.98,1.18-2.88c9.6-17.56,19.22-35.1,28.84-52.65c2.76-5.03,6.28-6.46,11.98-6.02c7.51,0.58,15.12,1.3,22.58,0.66
		c50.65-4.32,87.69-50.37,81.49-100.89c-6.19-50.43-52.46-86.12-102.84-78.4c-34.96,5.35-59.58,25.17-71.73,58.35
		c-12.19,33.29-5.66,64.01,17.19,91.14c5.59,6.63,12.32,12,19.64,16.64c3.63,2.3,4.9,6.28,3.12,9.63
		c-5.2,9.76-10.38,19.53-15.73,29.21c-1.84,3.32-4.81,5.87-8.72,5.72c-13.52-0.49-27.03-1.33-40.54-2.03
		c-22.29-1.17-44.57-2.41-66.87-3.44c-3.24-0.15-5.76-1.04-7.73-3.53c-0.73-0.93-1.39-1.91-2.09-2.86c0-76.49,0-152.98,0-229.47
		c0.34-0.47,0.68-0.95,1.02-1.42c1.71-2.33,3.44-4.66,6.69-4.83c13.77-0.73,27.55-1.44,41.32-2.15c21.85-1.12,43.69-2.22,65.54-3.36
		c28.51-1.49,57.02-3.04,85.53-4.54c21.85-1.15,43.69-2.24,65.54-3.38c32.81-1.71,65.63-3.39,98.43-5.24
		c3.53-0.2,5.85,1.14,7.87,3.63C456.52,394.34,456.97,395.15,457.48,395.92z"/>
	<path class="st0" d="M271.65,605.44c13.91-3.36,25.52-10.56,34.27-21.77c14.91-19.11,20.8-40.55,14.96-64.53
		c-1.73-7.08-5.23-13.39-9.98-18.95c-15.28-17.91-40.35-17.59-55.48,0.57c-17.8,21.36-15.07,56.98,5.84,74.06
		c0.31,0.25,0.54,0.59,1.05,1.16c-5.68,0.92-10.78,0.11-15.61-2.23c-10.9-5.27-17.07-14.41-20.09-25.72
		c-6.63-24.83,5.76-61.29,36.06-74.3c23.16-9.95,49.95-1.99,65.51,19.27c30.95,42.29,6.95,102.35-44.73,111.83
		c-3.86,0.71-7.82,0.9-11.73,1.33C271.69,605.91,271.67,605.68,271.65,605.44z"/>
	<path class="st0" d="M279.18,493.91c4.57-0.86,8.77-0.43,12.84,1.07c11.94,4.42,18.88,13.5,22.36,25.24
		c4.78,16.15,1.97,31.72-5.37,46.49c-7.72,15.55-19.58,26.75-36.55,31.63c-22.5,6.47-46.46-2.86-60.32-23.13
		c-28.74-42.03-5.62-99.58,44.24-109.94c4.35-0.9,8.85-1.11,13.43-1.05c-0.22,0.11-0.42,0.26-0.65,0.33
		c-23.27,6.33-38.03,21.76-46.11,43.89c-5.47,14.96-6.82,30.29-1.37,45.66c2.81,7.92,7.23,14.83,13.7,20.3
		c15.6,13.18,37.34,10.75,50.79-5.45c17.68-21.3,14.97-56.97-6.06-74.03C279.83,494.71,279.63,494.42,279.18,493.91z"/>
</g>
<text transform="matrix(1 0 0 1 521.9258 611.2031)" class="st0 st1 st2">OASIS SCAN</text>
</svg>
