<?xml version="1.0" encoding="utf-8"?>
<!-- Generator: Adobe Illustrator 23.0.2, SVG Export Plug-In . SVG Version: 6.00 Build 0)  -->
<svg version="1.1" id="图层_1" xmlns="http://www.w3.org/2000/svg" xmlns:xlink="http://www.w3.org/1999/xlink" x="0px" y="0px"
	 viewBox="0 0 1920 1080" style="enable-background:new 0 0 1920 1080;" xml:space="preserve">
<style type="text/css">
	.st0{fill:#FFFFFF;}
</style>
<g>
	<path class="st0" d="M2839.99,322.65c0,190,0,380.01,0,570.01c-0.41,0.55-0.87,1.07-1.23,1.64c-4.34,6.99-9.43,11.81-18.85,10.88
		c-13.97-1.37-28.04-1.65-42.07-2.37c-46.02-2.37-92.03-4.72-138.05-7.11c-70.7-3.67-141.4-7.42-212.11-10.9
		c-3.38-0.17-7.43,1.11-10.22,3.06c-29.41,20.55-58.62,41.38-87.89,62.14c-2.25,0-4.5,0-6.75,0c-2.4-2.96-3.21-6.06-1.28-9.66
		c1.04-1.94,1.47-4.21,2.52-6.14c20.46-37.42,40.97-74.81,61.47-112.21c5.88-10.73,13.38-13.76,25.54-12.83
		c16,1.23,32.23,2.77,48.13,1.41c107.95-9.22,186.9-107.36,173.68-215.03c-13.19-107.48-111.8-183.54-219.18-167.1
		c-74.51,11.41-126.99,53.65-152.88,124.36c-25.97,70.95-12.07,136.43,36.64,194.24c11.91,14.13,26.26,25.58,41.87,35.47
		c7.74,4.91,10.45,13.39,6.64,20.53c-11.09,20.8-22.12,41.63-33.53,62.25c-3.91,7.07-10.25,12.5-18.59,12.2
		c-28.82-1.05-57.61-2.82-86.41-4.34c-47.5-2.49-95-5.13-142.51-7.33c-6.9-0.32-12.28-2.22-16.48-7.52
		c-1.56-1.97-2.97-4.07-4.45-6.11c0-163.02,0-326.04,0-489.06c0.73-1.01,1.44-2.02,2.18-3.02c3.65-4.96,7.34-9.94,14.26-10.3
		c29.35-1.55,58.71-3.08,88.06-4.58c46.56-2.39,93.12-4.72,139.68-7.16c60.77-3.19,121.53-6.49,182.3-9.68
		c46.56-2.44,93.12-4.77,139.68-7.19c69.93-3.65,139.87-7.23,209.79-11.17c7.53-0.43,12.48,2.42,16.78,7.74
		C2837.95,319.27,2838.91,321.01,2839.99,322.65z"/>
	<path class="st0" d="M2443.95,769.2c29.64-7.17,54.4-22.5,73.04-46.39c31.78-40.73,44.33-86.43,31.88-137.53
		c-3.68-15.09-11.15-28.54-21.27-40.39c-32.57-38.17-85.99-37.48-118.24,1.2c-37.93,45.52-32.11,121.44,12.44,157.84
		c0.66,0.54,1.15,1.26,2.23,2.46c-12.11,1.97-22.98,0.24-33.28-4.74c-23.22-11.23-36.39-30.7-42.83-54.83
		c-14.13-52.91,12.28-130.62,76.86-158.36c49.35-21.2,106.46-4.25,139.63,41.07c65.97,90.13,14.82,218.13-95.33,238.35
		c-8.23,1.51-16.66,1.91-25,2.83C2444.03,770.21,2443.99,769.7,2443.95,769.2z"/>
	<path class="st0" d="M2459.98,531.5c9.74-1.83,18.69-0.92,27.36,2.29c25.44,9.41,40.24,28.78,47.65,53.79
		c10.19,34.42,4.19,67.61-11.44,99.08c-16.46,33.13-41.73,57.02-77.89,67.41c-47.96,13.78-99.03-6.11-128.55-49.29
		c-61.25-89.58-11.97-212.23,94.28-234.31c9.28-1.93,18.86-2.37,28.62-2.23c-0.46,0.24-0.9,0.56-1.39,0.7
		c-49.6,13.49-81.05,46.38-98.28,93.55c-11.65,31.89-14.54,64.55-2.92,97.32c5.98,16.89,15.4,31.62,29.19,43.26
		c33.25,28.08,79.59,22.91,108.25-11.63c37.67-45.4,31.91-121.43-12.92-157.78C2461.36,533.2,2460.94,532.58,2459.98,531.5z"/>
</g>
<text transform="matrix(1 0 0 1 2977.3516 781.4844)" class="st0" style="font-family:'PingFang-SC-Medium'; font-size:486.0988px;">OASIS SCAN</text>
</svg>
