<?xml version="1.0" encoding="utf-8"?>
<!-- Generator: Adobe Illustrator 19.0.0, SVG Export Plug-In . SVG Version: 6.00 Build 0)  -->
<svg version="1.1" id="图层_1" xmlns="http://www.w3.org/2000/svg" xmlns:xlink="http://www.w3.org/1999/xlink" x="0px" y="0px"
	 viewBox="0 0 1920 1080" style="enable-background:new 0 0 1920 1080;" xml:space="preserve">
<style type="text/css">
	.st0{fill:#FFFFFF;}
</style>
<g>
	<path class="st0" d="M416,385.4c0,98.9,0,197.7,0,296.6c-0.2,0.3-0.5,0.6-0.6,0.9c-2.3,3.6-4.9,6.1-9.8,5.7
		c-7.3-0.7-14.6-0.9-21.9-1.2c-23.9-1.2-47.9-2.5-71.8-3.7c-36.8-1.9-73.6-3.9-110.4-5.7c-1.8-0.1-3.9,0.6-5.3,1.6
		c-15.3,10.7-30.5,21.5-45.7,32.3c-1.2,0-2.3,0-3.5,0c-1.2-1.5-1.7-3.2-0.7-5c0.5-1,0.8-2.2,1.3-3.2c10.6-19.5,21.3-38.9,32-58.4
		c3.1-5.6,7-7.2,13.3-6.7c8.3,0.6,16.8,1.4,25,0.7c56.2-4.8,97.3-55.9,90.4-111.9c-6.9-55.9-58.2-95.5-114.1-87
		c-38.8,5.9-66.1,27.9-79.6,64.7c-13.5,36.9-6.3,71,19.1,101.1c6.2,7.4,13.7,13.3,21.8,18.5c4,2.6,5.4,7,3.5,10.7
		c-5.8,10.8-11.5,21.7-17.4,32.4c-2,3.7-5.3,6.5-9.7,6.3c-15-0.5-30-1.5-45-2.3c-24.7-1.3-49.4-2.7-74.2-3.8
		c-3.6-0.2-6.4-1.2-8.6-3.9c-0.8-1-1.5-2.1-2.3-3.2c0-84.8,0-169.7,0-254.5c0.4-0.5,0.8-1,1.1-1.6c1.9-2.6,3.8-5.2,7.4-5.4
		c15.3-0.8,30.5-1.6,45.8-2.4c24.2-1.2,48.5-2.5,72.7-3.7c31.6-1.7,63.2-3.4,94.9-5c24.2-1.3,48.5-2.5,72.7-3.7
		c36.4-1.9,72.8-3.8,109.2-5.8c3.9-0.2,6.5,1.3,8.7,4C415,383.6,415.5,384.5,416,385.4z"/>
	<path class="st0" d="M209.9,617.8c15.4-3.7,28.3-11.7,38-24.1c16.5-21.2,23.1-45,16.6-71.6c-1.9-7.9-5.8-14.9-11.1-21
		c-16.9-19.9-44.7-19.5-61.5,0.6c-19.7,23.7-16.7,63.2,6.5,82.1c0.3,0.3,0.6,0.7,1.2,1.3c-6.3,1-12,0.1-17.3-2.5
		c-12.1-5.8-18.9-16-22.3-28.5c-7.4-27.5,6.4-68,40-82.4c25.7-11,55.4-2.2,72.7,21.4c34.3,46.9,7.7,113.5-49.6,124
		c-4.3,0.8-8.7,1-13,1.5C210,618.3,210,618,209.9,617.8z"/>
	<path class="st0" d="M218.3,494.1c5.1-1,9.7-0.5,14.2,1.2c13.2,4.9,20.9,15,24.8,28c5.3,17.9,2.2,35.2-6,51.6
		c-8.6,17.2-21.7,29.7-40.5,35.1c-25,7.2-51.5-3.2-66.9-25.6c-31.9-46.6-6.2-110.4,49.1-121.9c4.8-1,9.8-1.2,14.9-1.2
		c-0.2,0.1-0.5,0.3-0.7,0.4c-25.8,7-42.2,24.1-51.1,48.7c-6.1,16.6-7.6,33.6-1.5,50.6c3.1,8.8,8,16.5,15.2,22.5
		c17.3,14.6,41.4,11.9,56.3-6c19.6-23.6,16.6-63.2-6.7-82.1C219,495,218.8,494.6,218.3,494.1z"/>
</g>
<g>
	<path class="st0" d="M502.6,528.1c0-61.1,33.6-98.3,81.4-98.3c47.9,0,81.4,37.2,81.4,98.3s-33.6,99.4-81.4,99.4
		C536.1,627.5,502.6,589.3,502.6,528.1z M640.7,528.1c0-47.9-22.6-77.3-56.7-77.3c-34.3,0-56.7,29.4-56.7,77.3
		c0,47.6,22.4,78.3,56.7,78.3C618.1,606.5,640.7,575.8,640.7,528.1z"/>
	<path class="st0" d="M791.1,565.9h-69.7l-18.5,58.3h-24.5l64.8-190.7H770l64.8,190.7h-25.5L791.1,565.9z M785.1,546.6l-9.1-29.1
		c-7-21.6-13-42.4-19.3-64.5h-1c-6,22.4-12.2,42.9-19,64.5l-9.4,29.1H785.1z"/>
	<path class="st0" d="M847.8,599.2l14.3-16.4c13.8,14.3,33,23.7,52.8,23.7c25,0,40.1-12.5,40.1-31.2c0-19.5-13.8-25.8-31.7-33.8
		l-27.6-12c-17.7-7.5-38.8-21.1-38.8-48.9c0-29.4,25.5-50.7,60.1-50.7c22.6,0,42.7,9.6,56.2,23.7l-12.7,15.4
		c-11.7-10.9-25.8-18-43.4-18c-21.6,0-35.6,10.9-35.6,28.1c0,18.5,16.7,25.5,31.5,31.7l27.3,11.7c22.1,9.6,39.3,22.6,39.3,51
		c0,30.2-25,54.1-64.8,54.1C887.6,627.5,864.5,616.6,847.8,599.2z"/>
	<path class="st0" d="M1016.9,433.4h24.2v190.7h-24.2V433.4z"/>
	<path class="st0" d="M1079.4,599.2l14.3-16.4c13.8,14.3,33,23.7,52.8,23.7c25,0,40.1-12.5,40.1-31.2c0-19.5-13.8-25.8-31.7-33.8
		l-27.6-12c-17.7-7.5-38.8-21.1-38.8-48.9c0-29.4,25.5-50.7,60.1-50.7c22.6,0,42.7,9.6,56.2,23.7l-12.7,15.4
		c-11.7-10.9-25.8-18-43.4-18c-21.6,0-35.6,10.9-35.6,28.1c0,18.5,16.7,25.5,31.5,31.7l27.3,11.7c22.1,9.6,39.3,22.6,39.3,51
		c0,30.2-25,54.1-64.8,54.1C1119.2,627.5,1096,616.6,1079.4,599.2z"/>
	<path class="st0" d="M1293,599.2l14.3-16.4c13.8,14.3,33,23.7,52.8,23.7c25,0,40.1-12.5,40.1-31.2c0-19.5-13.8-25.8-31.7-33.8
		l-27.6-12c-17.7-7.5-38.8-21.1-38.8-48.9c0-29.4,25.5-50.7,60.1-50.7c22.6,0,42.7,9.6,56.2,23.7l-12.7,15.4
		c-11.7-10.9-25.8-18-43.4-18c-21.6,0-35.6,10.9-35.6,28.1c0,18.5,16.7,25.5,31.5,31.7l27.3,11.7c22.1,9.6,39.3,22.6,39.3,51
		c0,30.2-25,54.1-64.8,54.1C1332.8,627.5,1309.6,616.6,1293,599.2z"/>
	<path class="st0" d="M1451.2,528.9c0-61.7,36.2-99.1,84.6-99.1c23.2,0,41.4,11.4,52.3,23.7l-13,15.6c-9.9-10.7-22.6-18.2-39-18.2
		c-36.2,0-60.1,29.7-60.1,77.3c0,48.1,22.9,78.3,59.3,78.3c18.2,0,32-8.1,44.2-21.3l13.3,15.1c-15.1,17.4-33.8,27.3-58.5,27.3
		C1486.8,627.5,1451.2,590.9,1451.2,528.9z"/>
	<path class="st0" d="M1715.5,565.9h-69.7l-18.5,58.3h-24.5l64.8-190.7h26.8l64.8,190.7h-25.5L1715.5,565.9z M1709.5,546.6
		l-9.1-29.1c-7-21.6-13-42.4-19.3-64.5h-1c-6,22.4-12.2,42.9-19,64.5l-9.4,29.1H1709.5z"/>
	<path class="st0" d="M1786,433.4h25l69.5,120.2l20.3,39.3h1.3c-1.3-19.3-3.1-40.6-3.1-60.4v-99.1h22.9v190.7h-24.7l-69.5-120.5
		l-20.6-39.3h-1c1,19.3,2.9,39.5,2.9,59.6v100.2H1786V433.4z"/>
</g>
</svg>
