<svg width="30" height="30" viewBox="0 0 30 30" fill="none" xmlns="http://www.w3.org/2000/svg">
<g clip-path="url(#clip0_1461_12617)">
<circle cx="15" cy="15" r="15" fill="#F2F4F7"/>
<path d="M19.3306 17.5804C19.3306 18.4911 19.0345 19.2753 18.4422 19.933C17.85 20.5908 17.0806 20.997 16.1342 21.1518V22.7143C16.1342 22.7976 16.1074 22.8661 16.0539 22.9196C16.0003 22.9732 15.9318 23 15.8485 23H14.6431C14.5658 23 14.4988 22.9717 14.4422 22.9152C14.3857 22.8586 14.3574 22.7917 14.3574 22.7143V21.1518C13.9646 21.0982 13.5851 21.006 13.219 20.875C12.853 20.744 12.5509 20.6116 12.3128 20.4777C12.0747 20.3438 11.8544 20.2009 11.6521 20.0491C11.4497 19.8973 11.3113 19.7857 11.2369 19.7143C11.1625 19.6429 11.1104 19.5893 11.0806 19.5536C10.9794 19.4286 10.9735 19.3065 11.0628 19.1875L11.9824 17.9821C12.0241 17.9226 12.0925 17.8869 12.1878 17.875C12.2771 17.8631 12.3485 17.8899 12.4021 17.9554L12.4199 17.9732C13.0925 18.5625 13.8158 18.9345 14.5896 19.0893C14.8098 19.1369 15.03 19.1607 15.2503 19.1607C15.7324 19.1607 16.1565 19.0327 16.5226 18.7768C16.8887 18.5208 17.0717 18.1577 17.0717 17.6875C17.0717 17.5208 17.0271 17.3631 16.9378 17.2143C16.8485 17.0655 16.7488 16.9405 16.6387 16.8393C16.5286 16.7381 16.3544 16.6265 16.1164 16.5045C15.8783 16.3824 15.6818 16.2872 15.5271 16.2188C15.3723 16.1503 15.1342 16.0536 14.8128 15.9286C14.5806 15.8333 14.3976 15.7589 14.2637 15.7054C14.1297 15.6518 13.9467 15.5729 13.7146 15.4688C13.4824 15.3646 13.2964 15.2723 13.1565 15.192C13.0166 15.1116 12.8485 15.006 12.6521 14.875C12.4556 14.744 12.2964 14.6176 12.1744 14.4955C12.0524 14.3735 11.9229 14.2277 11.786 14.058C11.6491 13.8884 11.5434 13.7158 11.469 13.5402C11.3946 13.3646 11.3321 13.1667 11.2815 12.9464C11.2309 12.7262 11.2056 12.494 11.2056 12.25C11.2056 11.4286 11.4973 10.7083 12.0806 10.0893C12.664 9.47024 13.4229 9.07143 14.3574 8.89286V7.28571C14.3574 7.20833 14.3857 7.14137 14.4422 7.08482C14.4988 7.02827 14.5658 7 14.6431 7H15.8485C15.9318 7 16.0003 7.02679 16.0539 7.08036C16.1074 7.13393 16.1342 7.20238 16.1342 7.28571V8.85714C16.4735 8.89286 16.8024 8.96131 17.1208 9.0625C17.4393 9.16369 17.6982 9.26339 17.8976 9.36161C18.097 9.45982 18.286 9.57143 18.4646 9.69643C18.6431 9.82143 18.7592 9.90774 18.8128 9.95536C18.8664 10.003 18.911 10.0446 18.9467 10.0804C19.0479 10.1875 19.0628 10.3006 18.9914 10.4196L18.2681 11.7232C18.2205 11.8125 18.1521 11.8601 18.0628 11.8661C17.9794 11.8839 17.8991 11.8631 17.8217 11.8036C17.8039 11.7857 17.7607 11.75 17.6922 11.6964C17.6238 11.6429 17.5077 11.564 17.344 11.4598C17.1803 11.3557 17.0062 11.2604 16.8217 11.1741C16.6372 11.0878 16.4155 11.0104 16.1565 10.942C15.8976 10.8735 15.6431 10.8393 15.3931 10.8393C14.8277 10.8393 14.3664 10.9673 14.0092 11.2232C13.6521 11.4792 13.4735 11.8095 13.4735 12.2143C13.4735 12.369 13.4988 12.5119 13.5494 12.6429C13.6 12.7738 13.6878 12.8973 13.8128 13.0134C13.9378 13.1295 14.0553 13.2277 14.1655 13.308C14.2756 13.3884 14.4422 13.4807 14.6655 13.5848C14.8887 13.689 15.0687 13.7693 15.2056 13.8259C15.3425 13.8824 15.5509 13.9643 15.8306 14.0714C16.1461 14.1905 16.3872 14.2842 16.5539 14.3527C16.7205 14.4211 16.9467 14.5253 17.2324 14.6652C17.5181 14.8051 17.7428 14.9315 17.9065 15.0446C18.0702 15.1577 18.2547 15.3065 18.4601 15.4911C18.6655 15.6756 18.8232 15.8646 18.9333 16.058C19.0434 16.2515 19.1372 16.4792 19.2146 16.7411C19.2919 17.003 19.3306 17.2827 19.3306 17.5804Z" fill="#667085"/>
</g>
<defs>
<clipPath id="clip0_1461_12617">
<rect width="30" height="30" fill="white"/>
</clipPath>
</defs>
</svg>
