<svg width="30" height="30" viewBox="0 0 30 30" fill="none" xmlns="http://www.w3.org/2000/svg">
<g clip-path="url(#clip0_1461_12671)">
<circle cx="15" cy="15" r="15" fill="#F2F4F7"/>
<path d="M11.5 11.5H9.5C9.224 11.5 9 11.724 9 12V20.5C9 20.7765 9.224 21 9.5 21H11.5C11.776 21 12 20.7765 12 20.5V12C12 11.724 11.776 11.5 11.5 11.5Z" fill="#667085"/>
<path d="M16 14.5H14C13.724 14.5 13.5 14.724 13.5 15V20.5C13.5 20.7765 13.724 21 14 21H16C16.2765 21 16.5 20.7765 16.5 20.5V15C16.5 14.724 16.2765 14.5 16 14.5Z" fill="#667085"/>
<path d="M20.5 9H18.5C18.2235 9 18 9.224 18 9.5V20.5C18 20.7765 18.2235 21 18.5 21H20.5C20.7765 21 21 20.7765 21 20.5V9.5C21 9.224 20.7765 9 20.5 9Z" fill="#667085"/>
</g>
<defs>
<clipPath id="clip0_1461_12671">
<rect width="30" height="30" fill="white"/>
</clipPath>
</defs>
</svg>
