<?xml version="1.0" encoding="UTF-8"?>
<svg width="100px" height="100px" viewBox="0 0 100 100" version="1.1" xmlns="http://www.w3.org/2000/svg" xmlns:xlink="http://www.w3.org/1999/xlink">
    <title>编组</title>
    <g id="图标" stroke="none" stroke-width="1" fill="none" fill-rule="evenodd">
        <g id="画板" transform="translate(-188.000000, -111.000000)">
            <g id="编组" transform="translate(188.000000, 111.000000)">
                <rect id="矩形" fill="#D8D8D8" x="0" y="0" width="100" height="100"></rect>
                <g id="人群" transform="translate(23.000000, 27.000000)" fill="#FFFFFF" fill-rule="nonzero">
                    <path d="M19.2132231,3.84899421 C18.9752066,4.10691651 18.7504132,4.37145219 18.5322314,4.64260127 L18.3735537,4.86084321 C18.1818182,5.11215211 18.0033058,5.37668779 17.8380165,5.64122348 C17.7785124,5.73381097 17.7190083,5.83301185 17.6661157,5.92559934 C17.5140496,6.17690824 17.3752066,6.44144392 17.2429752,6.70597961 C17.1834711,6.82502067 17.1305785,6.93744833 17.077686,7.05648939 C16.9586777,7.31441168 16.8595041,7.57233398 16.7603306,7.83686966 C16.7140496,7.9691375 16.661157,8.10140535 16.614876,8.23367319 C16.5289256,8.49820887 16.4561983,8.76935795 16.3834711,9.04050703 C16.3504132,9.17938826 16.3041322,9.3182695 16.277686,9.45715073 C16.2181818,9.74813998 16.1719008,10.0391292 16.1322314,10.3367319 C16.1123967,10.4689997 16.0859504,10.5946542 16.0727273,10.7203086 C16.0264463,11.1435657 16,11.5800496 16,12.0165335 C16,12.5720584 16.0528926,13.12097 16.1256198,13.6566547 C16.1454545,13.7889226 16.1652893,13.914577 16.185124,14.0468449 C16.277686,14.5759162 16.3900826,15.0983742 16.5487603,15.600992 C16.5487603,15.6076054 16.5553719,15.6208322 16.5553719,15.6274456 C16.7140496,16.1300634 16.9123967,16.6062276 17.1305785,17.0757785 C17.1834711,17.1815927 17.2297521,17.287407 17.2826446,17.3932213 C17.5206612,17.8627721 17.7785124,18.3257096 18.0760331,18.75558 L18.0826446,18.7621934 C18.3801653,19.1986773 18.7107438,19.6020942 19.061157,19.9922844 L19.2595041,20.2105263 C19.9867769,20.9909066 20.8198347,21.6654726 21.738843,22.2276109 C21.8115702,22.2739047 21.8842975,22.3201984 21.9570248,22.3598788 C22.4264463,22.6376412 22.9157025,22.8889501 23.4247934,23.0939653 C24.8330579,23.6759438 26.3801653,24 28,24 C29.6198347,24 31.1603306,23.6759438 32.568595,23.0939653 C33.077686,22.8823367 33.5669421,22.6310278 34.0429752,22.3532654 C34.1157025,22.313585 34.1818182,22.2672913 34.2545455,22.2276109 C35.1735537,21.6654726 36.0066116,20.9842932 36.7404959,20.2039129 C36.8066116,20.1311656 36.8727273,20.0650317 36.9322314,19.9922844 C37.2826446,19.6020942 37.6132231,19.1920639 37.9107438,18.75558 L37.9173554,18.7489667 C38.214876,18.3124828 38.4727273,17.8561587 38.7107438,17.3799945 C38.7636364,17.2741802 38.8099174,17.1683659 38.8628099,17.0625517 C39.0809917,16.5930008 39.2793388,16.1168366 39.4380165,15.6142188 C39.4446281,15.600992 39.4446281,15.5943786 39.4512397,15.5811518 C39.6099174,15.078534 39.722314,14.5560761 39.814876,14.0270047 C39.8347107,13.8947368 39.8545455,13.7690824 39.8743802,13.6368145 C39.9471074,13.1011298 40,12.5522182 40,11.9966933 C40,11.5602094 39.9735537,11.1237255 39.9272727,10.7004684 C39.9140496,10.5682006 39.8876033,10.4425462 39.8677686,10.3102783 C39.8280992,10.0192891 39.7818182,9.72168641 39.722314,9.43731055 C39.6892562,9.29181593 39.6495868,9.15954808 39.6165289,9.01405346 C39.5504132,8.74290438 39.477686,8.4783687 39.385124,8.21383301 C39.338843,8.08156517 39.2859504,7.94929733 39.2396694,7.81702948 C39.1404959,7.5524938 39.0347107,7.29457151 38.922314,7.03664921 C38.8694215,6.91760816 38.8099174,6.80518049 38.7504132,6.68613943 C38.6181818,6.42160375 38.4793388,6.16368145 38.3338843,5.91237255 C38.2743802,5.81317167 38.2214876,5.72058418 38.1619835,5.62799669 C37.9900826,5.35684762 37.8115702,5.09892532 37.6264463,4.84761642 C37.5735537,4.77486911 37.5206612,4.7021218 37.4677686,4.63598788 C37.2495868,4.35822541 37.0247934,4.09368972 36.7867769,3.83576743 C36.7471074,3.79608708 36.7140496,3.74979333 36.6743802,3.71011298 C36.3900826,3.41251033 36.0991736,3.13474786 35.7884298,2.87021218 C33.692562,1.08459631 30.9818182,0 28.0198347,0 C25.0512397,0 22.3404959,1.08459631 20.2512397,2.87021218 C19.9404959,3.13474786 19.6495868,3.41251033 19.3652893,3.71011298 C19.2859504,3.76302012 19.2528926,3.80931386 19.2132231,3.84899421 L19.2132231,3.84899421 Z" id="路径"></path>
                    <path d="M35.4266495,23.1502167 C35.4595678,23.1502167 35.492486,23.1567189 35.5254043,23.1567189 C41.3124374,23.1567189 46,18.5271757 46,12.8117706 C46,8.20173391 42.9254329,4.33944648 38.7053099,3.00650217 C40.4894805,5.37979326 41.5560326,8.31227076 41.5560326,11.4918306 C41.5560326,16.3034345 39.1332475,20.555852 35.4266495,23.1502167 Z M18.625161,23.1567189 C18.6646629,23.1567189 18.7041649,23.1502167 18.7436668,23.1502167 C15.0436525,20.555852 12.6142837,16.3034345 12.6142837,11.4918306 C12.6142837,8.31227076 13.6874195,5.37979326 15.4715901,3 C11.2382997,4.32644215 8.15714207,8.19523174 8.15714207,12.8117706 C8.15056534,18.5271757 12.8447116,23.1567189 18.625161,23.1567189 Z M11.9493345,25.803101 C5.23400601,26.5183394 0,32.1297099 0,38.9569857 L0,41.0246749 C0,41.5643548 0.441104909,42 0.987548304,42 L3.3181623,42 L3.3181623,40.2704235 C3.31157865,34.0543515 6.80749964,28.6315438 11.9493345,25.803101 Z" id="形状"></path>
                    <path d="M34.5508237,27 L20.4491763,27 C12.4693814,27 6,33.4420315 6,41.3880911 L6,44.9418564 C6,45.5274956 6.47451041,46 7.062636,46 L47.937364,46 C48.5254896,46 49,45.5274956 49,44.9418564 L49,41.3880911 C49,33.4420315 42.5306186,27 34.5508237,27 L34.5508237,27 Z" id="路径"></path>
                    <path d="M43,26 C48.160793,28.9686873 51.6696035,34.6603774 51.6696035,41.1846648 L51.6696035,43 L54.0088106,43 C54.5572687,43 55,42.5427539 55,41.9763147 L55,39.806102 C54.9933921,32.6403051 49.7400881,26.7507025 43,26 L43,26 Z" id="路径"></path>
                </g>
            </g>
        </g>
    </g>
</svg>