<?xml version="1.0" standalone="no"?><!DOCTYPE svg PUBLIC "-//W3C//DTD SVG 1.1//EN" "http://www.w3.org/Graphics/SVG/1.1/DTD/svg11.dtd"><svg t="1601359487099" class="icon" viewBox="0 0 1024 1024" version="1.1" xmlns="http://www.w3.org/2000/svg" p-id="5414" xmlns:xlink="http://www.w3.org/1999/xlink" width="200" height="200"><defs><style type="text/css"></style></defs><path d="M511.6 173.5c187.6 0 340.3 152.6 340.3 340.3S699.2 854 511.6 854 171.3 701.4 171.3 513.8 324 173.5 511.6 173.5m0-75.6c-229.7 0-415.9 186.2-415.9 415.9s186.2 415.9 415.9 415.9 415.9-186.2 415.9-415.9S741.3 97.9 511.6 97.9z" fill="#1296db" p-id="5415"></path><path d="M511.6 173.5c52.7 0 132.3 135.7 132.3 340.3S564.3 854 511.6 854 379.3 718.3 379.3 513.8s79.6-340.3 132.3-340.3m0-75.6c-114.8 0-207.9 186.2-207.9 415.9s93.1 415.9 207.9 415.9 207.9-186.2 207.9-415.9S626.4 97.9 511.6 97.9z" fill="#1296db" p-id="5416"></path><path d="M133.5 362.5h756.2v75.6H133.5zM133.5 589.4h756.2V665H133.5z" fill="#1296db" p-id="5417"></path></svg>