<?xml version="1.0" standalone="no"?><!DOCTYPE svg PUBLIC "-//W3C//DTD SVG 1.1//EN" "http://www.w3.org/Graphics/SVG/1.1/DTD/svg11.dtd"><svg t="1601359443233" class="icon" viewBox="0 0 1024 1024" version="1.1" xmlns="http://www.w3.org/2000/svg" p-id="3692" xmlns:xlink="http://www.w3.org/1999/xlink" width="200" height="200"><defs><style type="text/css"></style></defs><path d="M344.746667 853.333333A472.32 472.32 0 0 0 832.853333 384 345.173333 345.173333 0 0 0 896 262.826667a18.773333 18.773333 0 0 0-26.453333-21.76 80.213333 80.213333 0 0 1-92.16-16.213334 165.973333 165.973333 0 0 0-238.08-7.253333A176.213333 176.213333 0 0 0 490.24 384C347.306667 392.533333 249.173333 324.693333 170.666667 231.68a18.346667 18.346667 0 0 0-32 10.24 413.013333 413.013333 0 0 0 196.266666 428.8A287.146667 287.146667 0 0 1 144.213333 768a19.2 19.2 0 0 0-5.973333 35.84A469.333333 469.333333 0 0 0 344.746667 853.333333" p-id="3693" fill="#1296db"></path></svg>