<?xml version="1.0" encoding="UTF-8"?>
<svg width="100px" height="100px" viewBox="0 0 100 100" version="1.1" xmlns="http://www.w3.org/2000/svg" xmlns:xlink="http://www.w3.org/1999/xlink">
    <title>编组</title>
    <g id="图标" stroke="none" stroke-width="1" fill="none" fill-rule="evenodd">
        <g id="画板" transform="translate(-188.000000, -111.000000)">
            <g id="编组" transform="translate(188.000000, 111.000000)">
                <rect id="矩形" fill="#D8D8D8" x="0" y="0" width="100" height="100"></rect>
                <g id="用户群体-业务查询" transform="translate(21.000000, 23.000000)" fill="#FFFFFF" fill-rule="nonzero">
                    <path d="M41.136062,28.4561582 C45.9384361,25.9484389 49.2224141,20.8974486 49.2224141,15.0706346 C49.2224141,6.74698668 42.5263832,0 34.2671388,0 C26.0074921,0 19.3115187,6.74727618 19.3115187,15.0706346 C19.3115187,20.8275035 22.5160892,25.8287562 27.2245762,28.3667002 C17.2230778,31.3810587 9.80692063,40.8012475 10.0551984,51.5116003 C10.0551984,53.6226935 12.8873235,53.3324327 12.8873235,51.6162864 C12.8873235,39.756239 22.4284077,30.1415586 34.1979588,30.1415586 C45.9671653,30.1415586 55.5083069,39.7565285 55.5083069,51.6162864 C55.5083069,53.0552576 57.9944749,52.8380107 57.9944749,51.5116003 C58.2289052,40.9029228 50.9775387,31.5675019 41.136062,28.4562161 L41.136062,28.4561582 Z M34.0252963,27.3566063 C33.7363954,27.3566063 33.4498503,27.3685341 33.1630179,27.379188 C26.9141859,26.8493881 22.0056861,21.5739712 22.0056861,15.1399428 C22.0056861,8.35439364 27.4642927,2.85397102 34.1979588,2.85397102 C40.931625,2.85397102 46.6944164,8.35468315 46.6944164,15.1400007 C46.6944164,21.6041958 41.4638048,26.8986624 35.1467121,27.3860204 C34.7731897,27.3673029 34.3992793,27.3575148 34.0252963,27.3566642 L34.0252963,27.3566063 Z M18.9246512,29.093076 C18.9440721,29.093076 18.9631483,29.0945236 18.9823394,29.0945236 C20.7382685,29.0945236 20.7762485,26.2201133 18.9246512,26.2201133 C18.8773055,26.2201133 18.8305343,26.2174498 18.7831311,26.2168129 L18.780488,26.1625591 C18.5339915,26.1625591 18.2903678,26.1729814 18.0470889,26.1824193 C12.8123403,25.764717 8.45130433,21.6496486 8.45130433,16.2962382 C8.45130433,10.6457925 13.3086086,6.06554247 18.9246512,6.06554247 C20.7792363,6.06554247 20.2905526,3.68879663 18.3733377,3.68879663 C11.4840742,3.68879663 5.89951882,9.30757017 5.89951882,16.238105 C5.89951882,20.8441791 8.63632042,25.0034265 12.4934461,27.2775706 C4.84544426,30.0988272 -0.194865053,37.9330327 0.00577971993,46.5824351 C0.00577971993,48.3410232 2.67202239,48.0988207 2.67202239,46.669577 C2.67202239,36.7937603 9.10822635,29.0944657 18.9247087,29.0944657 L18.9247087,29.0930181 L18.9246512,29.093076 Z" id="形状"></path>
                </g>
            </g>
        </g>
    </g>
</svg>