<svg width="128" height="128" viewBox="0 0 128 128" fill="none" xmlns="http://www.w3.org/2000/svg">
<path d="M123 17.8993C123 46.2833 123 74.6385 123 103.023C122.943 103.109 122.858 103.195 122.829 103.281C122.174 104.314 121.433 105.031 120.037 104.917C117.958 104.716 115.878 104.658 113.798 104.572C106.989 104.228 100.152 103.855 93.3433 103.51C82.8595 102.965 72.3757 102.391 61.8918 101.875C61.379 101.846 60.7808 102.047 60.3819 102.334C56.0232 105.405 51.6929 108.504 47.3626 111.604C47.0208 111.604 46.7074 111.604 46.3655 111.604C46.0237 111.173 45.8812 110.685 46.1661 110.169C46.3085 109.882 46.394 109.537 46.5365 109.25C49.5563 103.654 52.6045 98.0862 55.6528 92.4897C56.536 90.8826 57.647 90.4234 59.4418 90.5669C61.8064 90.7391 64.2279 90.9687 66.564 90.7678C82.5746 89.3902 94.2834 74.7246 92.3177 58.6528C90.352 42.6097 75.7373 31.2446 59.8122 33.6841C48.7586 35.3774 40.9812 41.6913 37.1352 52.2528C33.2892 62.843 35.3404 72.6296 42.5765 81.2682C44.3428 83.3919 46.4795 85.0852 48.7871 86.5776C49.9266 87.3238 50.3254 88.5866 49.7842 89.6485C48.1318 92.748 46.508 95.8763 44.8271 98.9472C44.2574 100.009 43.3172 100.813 42.0637 100.755C37.7904 100.612 33.5171 100.325 29.2438 100.095C22.2071 99.7221 15.1704 99.3203 8.10526 99.0046C7.07967 98.9472 6.28199 98.6602 5.65524 97.8853C5.42733 97.5983 5.22791 97.2826 5 96.9669C5 72.6296 5 48.2635 5 23.9262C5.11395 23.7827 5.22791 23.6392 5.31338 23.467C5.85466 22.7208 6.39594 21.9746 7.42154 21.9172C11.7803 21.6876 16.1106 21.458 20.4693 21.2284C27.3636 20.884 34.2863 20.5109 41.1806 20.1665C50.183 19.6787 59.1854 19.1908 68.2163 18.7316C75.1106 18.3585 82.0333 18.0141 88.9276 17.6697C99.2974 17.1244 109.667 16.5791 120.037 16.0051C121.148 15.9477 121.889 16.3782 122.516 17.1531C122.715 17.3827 122.858 17.641 123 17.8993Z" fill="#175CD3"/>
<path d="M64.285 84.5962C68.6723 83.5343 72.3473 81.2384 75.1107 77.6796C79.8113 71.5953 81.6916 64.7648 79.8398 57.1306C79.2985 54.8634 78.1875 52.8544 76.6776 51.1037C71.863 45.3925 63.9431 45.5073 59.1571 51.2759C53.5448 58.0777 54.3994 69.4141 61.0088 74.8383C61.0943 74.9244 61.1798 75.0392 61.3507 75.2114C59.5559 75.4984 57.932 75.2401 56.4221 74.4939C52.975 72.8294 51.0378 69.902 50.0692 66.3145C47.961 58.4221 51.8924 46.7988 61.4646 42.666C68.7862 39.5091 77.2474 42.0346 82.1759 48.8077C91.9475 62.2679 84.3695 81.3819 68.0455 84.3953C66.8205 84.6249 65.567 84.6823 64.342 84.8258C64.3135 84.7397 64.3135 84.6536 64.285 84.5962Z" fill="#175CD3"/>
<path d="M66.6786 49.0956C68.1315 48.8086 69.442 48.9521 70.724 49.44C74.4845 50.8463 76.6781 53.745 77.7892 57.4759C79.2991 62.6132 78.4159 67.5782 76.0799 72.285C73.6298 77.2213 69.8978 80.8088 64.5419 82.3586C57.4198 84.4249 49.8703 81.4402 45.483 75.0114C36.3952 61.6374 43.7167 43.327 59.471 40.0265C60.8384 39.7395 62.2629 39.6821 63.7158 39.6821C63.6588 39.7108 63.5733 39.7682 63.5164 39.7969C56.1663 41.8059 51.4941 46.7136 48.9587 53.7737C47.2208 58.5378 46.7935 63.4168 48.5313 68.2957C49.4145 70.8213 50.8104 73.0312 52.8616 74.7531C57.7901 78.9433 64.6559 78.1684 68.9007 73.0312C74.4845 66.258 73.6298 54.893 66.992 49.4687C66.878 49.3539 66.821 49.2391 66.6786 49.0956Z" fill="#175CD3"/>
</svg>
